<?xml version="1.0" encoding="UTF-8"?>
<svg id="a" data-name="Layer 1" xmlns="http://www.w3.org/2000/svg" viewBox="0 0 600 600">
  <defs>
    <style>
      .b {
        stroke: #64ffda;
        stroke-linecap: round;
        stroke-linejoin: round;
        stroke-width: 1.2px;
      }

      .b, .c {
        fill: #8892b0;
      }

      .d {
        fill: #64ffda;
      }
    </style>
  </defs>
  <path class="b" d="m592.719,190.034c-4.524,20.886-11.703,39.742-23.209,56.374-.885,1.257-1.672,2.611-2.557,3.771-6.491,7.832-13.375,13.924-10.326,27.945,2.065,9.573-2.655,21.37-9.834,29.299-3.049,3.288-4.032,6.575-3.934,10.733.295,15.471,1.278,30.943.885,46.414-.197,9.573,0,19.339-3.147,28.815-5.409,16.632-14.751,25.238-30.29,25.431-3.737.097-4.72,1.257-5.606,5.512-2.065,9.283-2.557,19.242-7.376,27.655-2.164,3.674-2.164,8.122-1.869,12.474,1.082,17.212,2.36,34.424,2.754,51.635.098,5.318,1.377,8.799,4.917,12.087,9.146,8.509,12.686,34.134,3.245,44.383-7.179,7.929-16.62,10.83-25.864,12.86-13.768,3.094-27.831,5.125-41.992,4.448-14.161-.677-28.126-1.257-39.632-12.377-1.77-1.741-3.54-.193-5.212.193-11.309,2.031-22.324,1.16-33.633-.774-23.307-4.061-21.045-29.009-10.326-42.449,9.146-11.41,21.439-13.827,34.125-15.761,2.754-.387,7.277,1.644,8.457-4.738.983-5.028.787-7.446-4.13-9.476-7.867-3.288-10.326-11.894-9.343-21.66,1.377-13.634,4.819-26.978,4.72-40.902,0-4.835-.393-7.542-5.802-8.509-5.802-.967-10.031-5.705-10.031-13.247,0-2.321-.787-3.481-2.36-4.931-3.049-2.901-4.72-6.575-3.049-11.41.688-2.031,1.082-5.028.197-6.672-2.95-5.318-2.164-10.443-.393-15.665.983-2.998-.197-4.931-1.672-6.769-1.672-2.127-2.754.483-4.13,1.064-20.062,7.929-42.878.677-53.204-20.403-2.557-5.125-7.179-4.158-10.719-5.995-3.147-1.644-6.884-2.804-8.261-6.382-2.557-6.865-6.786-8.509-12.883-7.542-6.392,1.064-9.834-3.771-11.703-9.379-5.507-16.342-.492-28.719,13.178-37.324,5.606-3.578,10.523-8.606,16.03-12.667,9.343-6.769,16.817-2.417,23.799,2.998,6.392,4.931,11.408,11.99,15.046,20.016,4.524,9.96,26.356,14.988,34.223,8.219,3.737-3.191,7.769-6.092,11.801-8.896,2.36-1.644,3.442-3.965,3.442-6.672,0-2.998-2.754-3.191-4.524-3.771-17.013-6.189-32.355-15.375-45.926-28.622-16.522-16.148-27.733-36.067-34.518-59.178-7.769-26.398-8.359-53.473-2.36-80.064,8.949-39.162,29.208-68.847,61.268-88.38,14.063-8.509,28.716-15.181,44.254-18.179,14.653-2.804,29.601-4.061,44.648-3.384,17.603.87,35.207,2.611,52.318,7.929,29.405,9.089,55.465,25.141,74.741,52.022,14.653,20.403,24.094,43.996,27.044,70.781,2.065,16.535.59,32.393-1.278,49.121Zm-53.794,51.635c1.869,2.224,3.344,2.224,5.606,0,5.704-5.898,10.129-12.861,12.981-20.886,3.147-8.993,4.622-18.566-1.278-26.978-7.671-10.927-22.324-10.927-31.863-.774-1.967,2.031-3.737,6.189-6.687,4.738-3.049-1.45-1.573-5.802-1.377-8.799.787-16.632-.295-32.683-10.621-45.93-4.622-5.995-4.032-11.894-1.18-18.662,4.917-11.7-.59-25.624-10.326-26.881-6.786-.87-13.67-.87-20.554-1.547-11.998-1.064-24.094-2.417-36.092-3.578-18.488-1.934-36.78-6.092-55.367-5.705-9.638.193-19.767,1.16-23.307,14.504-2.655,10.153-4.917,20.403-5.802,30.943-1.278,14.504-1.18,29.009-7.671,42.643-13.67,28.719-5.212,60.048,14.948,79.484,17.505,16.825,38.452,22.143,60.579,23.981,14.751,1.16,29.503,1.064,44.156-1.547,16.817-2.998,32.748-8.509,43.468-25.528,2.95-4.641,4.72-11.894,10.916-12.474,6.097-.58,12.785-1.547,19.472,2.998Zm-160.496,36.841c-10.916-5.898-21.34-12.667-29.7-22.82-14.161-17.212-20.947-37.034-17.898-60.918,2.557-20.499,13.768-38.291,13.571-59.661-.098-9.96,2.557-19.823,4.13-30.556-3.54,1.45-4.917,5.898-7.966,2.611-2.655-2.901.393-4.931,1.278-7.155,3.344-8.122,9.539-13.344,16.325-18.759-5.901-.774-10.621.483-15.341,1.45-1.869.387-4.032,2.417-5.311-.193-1.082-2.127.885-4.158,1.967-5.995,10.424-16.438,25.471-25.528,41.599-32.103,21.242-8.606,43.468-11.7,66.086-10.25,9.244.58,18.98,1.741,23.996,12.957,1.082,2.417,2.557,1.547,4.032.58,14.358-9.573,28.618-6.382,41.206,2.998,30.388,22.433,39.829,57.244,40.714,95.922.197,8.413-1.77,17.018-3.54,25.334-.983,4.738.197,6.382,3.737,8.413,5.114,2.901,8.457,8.219,9.736,14.408,4.819,21.757-3.442,38.485-16.522,53.376-1.475,1.644-5.704,2.804-2.164,6.575,3.147,3.288,4.327-.774,5.606-2.417,28.716-34.907,38.059-76.003,29.405-122.223-7.474-39.452-29.109-67.397-59.497-87.026-23.799-15.375-50.253-20.596-77.101-22.143-25.372-1.45-50.45.483-74.839,10.54-22.717,9.476-41.107,24.947-55.17,46.704-11.211,17.405-17.308,37.034-20.652,58.404-4.72,30.266,1.377,58.114,13.965,83.932,14.85,30.459,37.665,50.862,68.348,58.017Zm46.516,84.609c.885,1.547,1.869,1.064,3.147.677,15.145-4.545,25.569-15.085,31.568-31.233.885-2.417,1.573-6.672,5.212-4.835,2.95,1.45,1.869,5.705,1.082,7.832-4.327,11.99-10.326,22.917-21.144,29.009-3.344,1.934-4.72,3.384-1.967,7.446,5.409,8.219,7.572,18.082,7.376,27.945-.197,7.832,2.95,6.479,6.884,5.222,1.475-.483,2.754-1.837,4.327-2.321,31.863-11.894,43.369-61.208,29.208-90.604-2.164-4.448-5.015-8.509-10.424-6.672-14.555,4.931-29.503,4.061-44.451,4.061-3.442,0-4.425,1.354-4.819,5.028-2.163,15.665-2.852,31.716-5.999,48.444Zm20.062,145.914c13.375,2.321,26.848,2.514,40.321.387,4.032-.58,5.311-2.417,5.311-6.962.098-8.896-1.18-17.599-1.869-26.398-.688-9.573-2.065-18.856,2.557-28.428,4.327-8.993,6.884-19.049,6.589-29.686-.098-3.384-.492-4.255-3.639-3.094-12.883,4.641-26.061,7.349-39.731,6.962-8.753-.193-17.407,0-26.159-.097-2.459,0-4.622.87-5.606,3.288-1.082,2.707,1.377,3.771,2.852,5.222,8.162,8.316,16.423,16.342,24.389,24.851,12.293,13.247,13.473,24.271,1.967,32.2-8.064,5.415-8.654,12.087-6.982,21.757Zm-24.782,55.31c2.164.387,4.327,1.064,6.491,1.064,13.571-.097,27.044.483,40.517-1.16,12.588-1.547,24.192-5.802,35.305-11.894,1.278-.677,2.36-1.257,2.557-3.384.59-9.573-8.654-19.629-16.62-17.695-7.081,1.741-14.26,2.417-21.537,2.611-8.359.193-16.817-4.158-24.192-3.094-11.703,1.644-23.602,6.962-32.945,16.342-3.049,3.094-7.671,6.672-6.589,11.41.885,3.868,6.196,3.964,9.933,4.448,2.164.193,4.13.677,7.081,1.354Zm-94.606-204.414c-.983,2.321-5.015,2.224-4.13,5.608.787,2.998,3.934,2.901,6.097,3.578,7.081,2.031,14.26,2.804,21.439.677,1.475-.483,2.95-.387,2.36-2.804-2.065-7.736,2.754-11.12,7.376-14.408,4.425-3.094,10.523-4.835,13.08-9.283,5.015-8.606,8.261-7.542,12.49,0,.098.193.295.387.393.483,2.459,3.384,5.409,6.479,1.377,11.12-.983,1.064-2.36,3.868-.885,4.738,1.77,1.064,4.327.483,6.491.58,1.77.097,2.557-.87,2.655-2.901.492-15.858,3.835-31.136,7.081-46.414.197-.774.197-1.837-.197-2.417-3.049-4.061-21.635-4.835-25.668-1.644-9.441,7.446-17.603,19.242-31.666,10.25,4.032,14.504-3.442,31.91-18.292,42.836Zm172.002-49.218c3.737,7.639,4.819,15.858,5.114,24.657.885,23.787,2.36,47.574,3.442,71.361.197,3.384,1.278,3.965,3.934,4.158,13.473.677,25.274-13.247,25.372-30.556.197-18.372.098-36.841,0-55.213,0-1.354.885-3.288-1.672-3.965-3.442,8.026-9.441,11.797-17.21,9.766-5.999-1.547-10.326-6.189-11.506-13.247-2.459-14.988,5.704-21.757,18.193-25.624-6.392-4.255-12.195-3.965-17.505-4.061-3.835-.097-2.852,5.898-4.72,8.606-.59.87-1.278,2.127-2.164,2.321-7.179,2.321-4.622,6.479-1.278,11.797Zm-108.767,109.653c3.54-2.514,7.277-11.99,10.621.29.295,1.064,2.164,1.934,3.442,2.321,10.621,3.578,19.079-3.481,19.472-16.148.688-22.627-16.62-40.225-36.485-37.228-9.343,1.45-18.39,11.41-17.898,20.209,4.425-4.158,8.654-8.219,14.456-9.186,2.065-.29,4.622-2.998,5.802.193,1.278,3.384-2.065,3.868-4.032,5.222-5.704,3.868-12.49,6.769-14.26,15.278-.393,2.031-1.475,5.125.492,6.285,1.77.967,3.737-1.064,4.917-2.901,2.852-4.351,6.687-7.059,11.014-8.896,1.672-.774,3.934-2.611,5.015.774.787,2.321,0,4.351-1.967,5.802-3.245,2.224-6.491,4.351-9.048,7.639-3.245,4.061-6.982,9.089-3.835,13.731,4.032,5.608,7.966-.87,12.293-3.384Zm94.114-123.674c3.54-1.547,7.376-2.514,10.523-4.738,4.622-3.288,2.95-8.509,1.672-13.151-.688-2.611-2.36-1.644-3.934-.774-16.62,8.799-34.518,10.637-52.417,10.637-15.833,0-31.765-.774-47.205-5.995-2.262-.774-6.196-2.707-6.786,2.031-.492,3.771-1.869,8.316,4.032,10.153,18.39,5.705,37.075,8.026,55.957,6.672,12.49-.967,24.782-2.998,38.157-4.835Zm-110.341,259.434c1.573.193,3.245.58,4.819.58,9.539-.193,18.98,1.741,24.881-11.217,3.737-8.219,12.686-11.41,22.324-15.858-16.62-1.257-31.371-4.255-45.926-2.321-10.621,1.45-21.34,5.222-27.241,17.212-2.065,4.158-1.869,7.446,3.344,8.993,5.606,1.644,11.014,2.514,17.8,2.611Zm-72.085-251.989c2.557-2.321.983-5.512,1.377-8.316.197-1.934.492-3.868,2.557-3.771,1.672,0,2.36,1.741,2.164,3.481-.688,4.931,2.459,6.092,5.606,7.155,1.377.483,2.852.87,2.852,2.901s-1.573,2.514-2.95,2.901c-1.573.387-3.147.677-4.819.774-2.459.29-4.524,1.547-4.622,4.351-.098,3.094,1.77,5.028,4.524,5.318,3.344.387,6.884.967,9.933-1.547,1.278-1.064,2.754-1.547,3.737.097s-.098,2.804-1.278,3.965c-5.311,5.125-12.293,7.059-17.112,2.417-5.901-5.608-9.441-4.158-13.965.483-.295.29-.688.483-1.082.58-4.327,1.644-4.819,4.158-1.573,7.832,1.869,2.031,3.442,4.448,5.311,6.382,4.032,4.061,17.013,6.672,20.16,3.771,4.72-4.255,8.753-9.283,11.211-15.665,5.409-14.408.393-29.202-13.08-40.612-4.524-3.771-8.851-7.639-14.456-4.351-6.294,3.674-5.606,10.83-5.311,17.405.197,3.674,2.164,6.479,4.819,7.929,2.459,1.741,4.032-.58,5.999-3.481Zm139.155,184.302c2.36-1.644,4.819-3.191,7.081-5.028,7.277-6.092,8.064-11.507,2.164-18.952-8.753-11.12-18.783-20.983-29.11-30.169-1.672-1.45-2.754-5.802-6.294-3.481-6.491,4.158-12.588,1.16-17.308-3.191-3.147-2.804-3.934-1.45-5.999.483-3.049,2.901-2.459,6.575-1.77,10.056,1.082,4.738.885,9.283.197,14.021-1.672,11.12-3.147,22.24-4.13,33.457-.688,8.316,3.442,13.247,10.621,14.311,15.833,1.934,30.093-2.804,44.549-11.507Zm58.219,75.132c-8.654,4.158-17.702,6.189-27.143,7.639-20.652,3.288-41.107,4.158-61.661-1.45-1.77-.483-4.819-3.771-5.999.097-.787,2.707,2.065,4.351,4.327,5.705,6.589,3.964,13.768,4.255,20.947,5.125,21.439,2.611,42.484.387,62.939-6.769,5.901-2.031,11.408-5.802,13.67-14.311-2.557,1.45-4.425,2.417-7.081,3.964Zm-69.528-160.321c.688,2.901-1.77,6.962,1.475,8.606,5.901,2.998,13.178-3.094,13.276-10.443,0-2.031.098-4.061,0-6.189-1.18-18.566-8.162-25.818-20.357-21.563-4.13,1.45-3.442,2.611-1.377,5.898,4.032,6.575,7.671,13.731,6.982,23.69Zm46.615,8.896c6.589-1.934,13.178-3.771,19.669-5.802,2.262-.677,4.229-2.224,4.13-5.125-.295-8.413-.885-16.825-1.377-26.978-8.162,19.629-21.34,30.846-37.174,39.355,4.524-.484,9.146-.967,14.751-1.45Zm-136.598-84.609c0-3.578.393-7.252-1.278-10.637-.983-1.934-2.459-3.384-4.229-3.191-3.049.29-.59,2.804-.983,4.255-1.18,3.771-.885,7.832-2.557,11.797-3.737,8.799-8.457,16.342-15.735,21.853-1.967,1.547-2.852,3.288-1.475,5.705.885,1.644,2.36,2.031,3.639.967,9.539-7.929,19.472-15.471,22.619-30.749Zm113.881,196.969c12.391,1.837,24.684,2.514,36.977-1.354,3.442-1.064,2.459-3.674,2.459-5.802-.098-3.674-2.262-2.031-3.934-1.644-13.276,3.094-26.651,3.384-40.124.87-1.377-.29-2.95-1.16-3.344,1.257-.295,1.547-.393,3.288,1.278,4.061,1.967.87,3.835,1.644,6.687,2.611Zm-36.682-156.067c5.999-2.321,2.557-8.219,3.344-12.377,2.36-13.441,4.13-27.075,5.802-40.709.197-1.934,1.77-5.512-2.065-5.802-3.442-.29-3.639,2.998-4.032,5.608-1.672,10.927-4.032,21.757-4.425,32.683-.197,6.769-3.737,13.924,1.377,20.596Zm-9.638-50.378c-.983,6.865-2.754,13.731-2.852,20.596-.098,6.672-2.95,12.667-2.754,19.339.098,4.351,2.95,4.641,5.212,5.125,3.639.677,2.065-2.901,2.164-4.641.492-13.054,1.672-26.011,4.327-38.775.787-3.481,3.049-9.573-.393-10.83-5.409-2.224-2.852,5.802-5.704,9.186Zm-25.668,245.8c-10.424,0-20.849,1.064-31.175-5.028.492,5.028,3.049,8.026,5.901,8.606,12.49,2.417,24.979,5.222,37.764,2.224,1.967-.483,2.852-1.16,2.754-3.481-.197-2.417-1.672-2.224-3.049-2.224-3.639-.097-7.277-.097-12.194-.097Zm-96.671-267.267c.197-2.901.393-5.705.59-8.606-7.376,7.349-9.441,20.79-4.819,29.976,2.557,5.028,5.606,2.127,8.162.87,2.95-1.45,4.032-3.965,1.082-7.252-3.147-3.771-5.409-8.219-5.015-14.988Zm147.613,225.011c1.967-.677,5.606,1.741,5.704-2.707.098-5.222-3.934-2.707-5.901-2.707-9.441-.193-18.882.774-28.224-1.354-1.377-.29-4.229-1.354-4.327,1.644-.098,2.224,1.475,3.481,3.934,3.868,9.146,1.741,18.39,1.354,28.814,1.257Zm-158.529-204.898c-2.557-5.995-.688-12.667-1.573-19.823-6.491,6.865-7.867,14.118-6.392,22.723.983,5.318,3.049,9.283,7.867,7.446,5.802-2.031-.393-5.995.098-10.346Zm137.385,192.714c7.867,0,15.735,0,23.602-.193,5.507-.097,3.049-5.222,3.737-8.219.393-1.547-.492-3.288-2.557-2.224-9.539,5.125-19.767,7.059-30.388,8.219,1.18,2.901,2.95,2.127,5.606,2.417Zm118.7-255.953c2.459-1.741,4.819-3.481,7.572-5.512-5.015-4.061-9.834-3.094-13.375.677-3.835,4.061-3.934,10.153-3.245,15.761.295,2.127,2.065,3.868,3.835,3.674,2.852-.193,1.082-2.707.983-4.158,0-3.868,1.672-6.865,4.229-10.443Zm-13.375,20.886c3.639-6.285-4.327-7.155-3.442-12.474-3.737,3.384-6.589,6.189-9.638,8.703-2.262,1.741-1.77,3.578-.983,5.898.983,2.514,2.36,1.45,3.934.967,3.049-1.16,6.196-1.741,10.129-3.094Zm-143.482,83.061c2.459-1.45,5.015-2.901,7.474-4.255,1.573-.87,2.065-2.224,1.475-3.965-.688-1.644-2.065-1.16-3.147-.677-6.982,3.094-13.473,7.252-19.57,12.087-1.18.967-2.164,2.707-1.377,4.158.983,1.837,2.557.483,3.737-.29,3.442-2.224,6.982-4.448,11.408-7.059Zm107.292-282.835c-3.639,6.479-3.639,6.672-2.065,11.217,5.409-11.894,14.358-19.339,24.192-25.914-8.949,1.644-16.325,5.802-22.127,14.698Zm24.881-5.222c3.049-4.158,8.261-2.804,12.391-5.898-15.932-1.547-26.651,8.509-23.996,22.337,2.164-6.769,5.507-12.28,11.605-16.438Zm-54.285-3.481c5.606,4.835,8.359,11.797,11.014,18.952.393-14.988-18.39-33.36-31.273-30.846,7.179,2.901,14.063,5.512,20.259,11.894Zm-36.485-6.962q-7.277-4.158-11.506-2.224c12.391,3.965,22.619,10.54,28.323,23.884-1.672-10.637-7.966-16.825-16.817-21.66Zm97.753,251.699c0,10.83,3.737,14.988,12.293,12.764-8.162-3.578-9.048-11.023-8.556-19.242-2.852,1.354-2.557,3.771-3.737,6.479Zm-125.977-244.64c6.097,1.45,11.899,4.351,17.505,7.446-8.949-10.153-22.127-14.311-28.421-9.379,3.147.677,6.491,1.257,10.916,1.934Zm155.48,198.419c-2.065,1.354-5.114,2.611-4.524,5.512.59,3.191,3.737,1.16,5.704,1.45.983.193,1.967.387,2.95.58,1.573.29,3.934,2.224,4.13-1.257.098-2.417-.098-5.608-3.049-6.382-1.377-.387-2.852-.097-5.212.097Zm-6.294,26.495c1.672,1.547,3.344,3.094,5.015,4.738,1.475,1.354,1.967,5.608,4.622,2.901,2.754-2.804.688-5.705-1.475-8.122-2.459-2.804-5.999-2.224-8.851-3.771-.59-.29-1.967-.29-1.672,1.064.393.774,1.377,1.45,2.36,3.191Zm-10.031,25.141c2.459.774,6.196.967,6.392-1.45.197-4.158-4.229-5.995-6.392-8.993-.983-1.354-2.655-.677-2.852.774-.393,3.191-2.557,7.155,2.852,9.67Zm23.996-29.589c.983-2.804,1.967-6.769-.688-7.832-3.245-1.257-7.277-.967-10.719.097-2.36.677-.098,2.321.983,2.998,3.147,1.837,6.392,3.481,10.424,4.738Zm-14.555,20.403c1.278.677,1.967,3.674,3.737,1.741.688-.774.688-3.288.098-4.351-1.77-3.191-3.639-6.575-7.474-7.155-1.377-.193-2.754.87-2.754,2.127,0,3.964,3.245,5.125,6.392,7.639Zm-161.282,57.147c-2.36,1.16-5.212,1.644-5.802,5.028-.197,1.064.885,2.417,1.377,3.578,2.164-1.45,4.229-2.804,6.392-4.255.492-.387.983-.87,1.278-1.45.492-1.257,2.95-1.547,1.77-3.578-1.475-2.321-2.852.193-5.015.677Zm157.152-87.993c-5.802-.677-8.851,5.512-13.866,6.769,4.819-1.257,11.703,3.771,13.866-6.769Zm4.622-19.823c-1.475,2.224-4.032,3.868-2.95,8.026,3.245-3.965,7.867-4.061,11.998-6.479-2.754-2.901-5.212-4.255-9.048-1.547Zm-27.044-180.337c-2.36,2.611-6.392,4.061-5.015,9.283.787-4.061,6.491-4.255,5.015-9.283Z"/>
  <path class="b" d="m254.616,439.605c-10.031,8.896-21.537,6.285-32.355,6.769-9.244.483-18.587.677-27.831-1.547-9.146-2.127-12.785-9.766-8.851-19.049,1.672-3.771,2.065-8.219,5.409-11.7-5.901-1.741-11.113-.097-16.423.58-2.852.387-1.967,3.191-1.77,4.931,1.672,16.825-1.672,32.103-10.719,45.834-3.049,4.545-2.065,10.54-2.459,15.761-.688,8.799-1.082,17.599-2.557,26.301-.885,5.318,2.557,5.125,5.507,5.705,9.933,1.934,19.767,3.674,26.848,13.054,4.917,6.382,5.015,13.924,3.442,21.08-1.573,7.252-8.064,9.089-13.473,10.733-4.819,1.45-10.031,1.837-14.948,1.45-10.621-.87-19.275,6.672-29.601,7.542-10.621.967-20.947.483-31.371-1.16-7.671-1.16-15.538-.774-22.717-5.125-11.998-7.349-15.145-21.563-6.786-33.843,9.638-14.118,6.982-30.266,6.491-45.93-.197-4.738-2.459-2.998-4.917-1.257-8.851,6.092-17.997,11.12-29.011,7.736-3.835-1.16-6.589-3.965-6.884-7.542-.197-3.094,3.245-5.222,6.196-6.285,6.392-2.127,12.588-4.641,18.193-8.606,2.164-1.45,4.13-3.771,3.934-6.479-.197-3.191-3.344-2.321-5.311-3.094-15.735-5.705-19.767-15.568-21.144-34.907-.393-6.092-.393-12.184.885-18.372,2.95-13.731-5.999-21.176-13.965-26.881-22.225-15.858-27.733-56.567-13.571-79,1.672-2.611,1.573-4.061.295-6.962-14.653-33.36-12.785-66.43,1.377-99.306,17.21-40.032,45.631-65.366,83.69-74.069,48.778-11.12,97.556-.483,133.058,49.992,15.833,22.53,24.291,49.121,22.029,78.13-2.852,38.485-19.177,67.3-51.827,82.965-9.736,4.641-19.767,6.962-29.995,9.089-8.261,1.644-9.539,3.965-6.884,12.57,2.262,7.349,5.606,13.827,10.916,18.952,5.704,5.415,12.293,4.061,16.522-2.901,2.262-3.674,4.819-7.542,9.441-7.542,6.786,0,5.114-4.545,3.147-8.026-4.032-6.962-1.082-10.733,4.622-11.7,6.786-1.064,13.768-1.064,20.554-.483,4.819.387,6.982,7.059,3.934,11.41-2.655,3.868-2.852,4.545,1.869,6.382,6.982,2.804,11.211,5.512,8.654,17.889-1.475,7.349-.59,14.794-3.147,22.433-1.77,5.125,5.015,11.99,8.261,17.985,4.229,8.316,10.228,16.148,3.245,26.495ZM96.087,254.046c-1.475,8.509-.885,17.502-4.72,25.624-2.95,6.189-2.754,10.927,4.425,14.408,6.687,3.288,10.228,10.927,12.391,18.759.393,1.547.492,2.804,2.164,3.578,14.358,5.995,37.174.483,47.008-11.603-1.475-.774-2.852-1.547-4.327-2.127-8.556-3.771-16.03-9.186-21.93-17.212-2.262-2.998-3.737-7.349-1.082-9.573,2.262-1.837,6.097-.193,7.966,3.674.688,1.547,1.967,2.804,3.049,4.061,11.998,13.537,26.946,17.405,43.369,16.342,21.242-1.354,38.059-10.83,48.09-33.07,1.77-3.868,1.278-5.415-1.672-8.122-6.294-5.608-6.196-17.889.197-23.207,3.54-2.998,2.95-4.931,1.377-8.606-6.786-15.955-19.964-21.37-33.633-25.238-7.966-2.224-12.293-7.929-15.538-15.375-3.147-7.252-7.179-13.634-12.686-18.759-29.11-27.171-78.281-19.339-100.506,15.761-2.164,3.384-4.425,6.189,1.278,6.962,7.966,1.064,12.096,6.672,15.145,14.214,6.196,15.375,8.457,31.619,9.638,49.508Zm-11.309-99.016c25.766-16.342,51.925-18.856,79.068-3.965,8.261,4.545,13.571,14.891,24.094,14.794.492,0,2.754.967,2.36,2.998-.59,2.804-5.311-1.16-4.425,3.288.787,3.965,3.934,2.417,6.097,1.837,2.754-.774,5.311-1.547,8.261-.193,2.36,1.16,6.196,1.16,5.999,4.448-.295,4.061-4.13,2.127-6.491,2.611-2.655.483-6.982-1.741-7.769,1.547-.983,4.158,2.557,7.252,5.901,9.089,2.655,1.45,5.311,2.901,8.261,3.674,17.21,4.738,30.191,15.085,35.108,35.487.787,3.094,2.557,6.382,6.294,9.379-.787-7.832-1.082-14.408-2.262-20.79-6.589-37.518-26.749-64.012-55.662-81.804-27.831-17.115-58.416-19.436-88.902-11.507-29.995,7.736-54.285,26.881-70.905,55.987-16.227,28.719-21.144,60.241-11.211,93.505.59,2.031,1.573,7.446,3.934,5.028,3.049-3.094,10.424.097,9.539-8.703-.983-9.476-1.18-19.049.393-28.428,3.147-18.662,10.523-35.197,20.16-50.572,8.851-14.118,17.407-28.622,32.158-37.711Zm82.018,279.547c-.295-1.837,1.082-3.965-1.377-5.898-1.278,4.448-5.999,4.835-7.277,9.573-1.377,5.318-5.311,6.382-9.933,6.962-5.901.774-8.064-5.318-12.293-6.962-6.589-2.514-13.473-3.288-20.554-3.094-13.08.29-26.061-.774-37.075-10.443-2.065-1.837-3.344-.58-4.032,2.417-2.95,11.894-.688,23.11,4.229,33.263,6.294,13.054,13.571,25.334,9.343,41.192-.885,3.384,1.672,3.578,3.737,3.481,8.654-.387,17.308-.967,25.963-1.257,2.95-.097,3.049-1.934,3.245-4.448.688-9.476,1.475-18.952,2.262-28.332.098-1.354-.59-3.481,1.475-3.965s3.147,1.257,3.147,3.191c.098,2.804,1.278,4.738,3.54,4.351,8.162-1.354,15.833-3.868,22.422-10.25,7.769-7.542,9.834-18.372,13.178-29.782Zm81.035-12.764c-.983-1.45-1.869-2.901-2.95-4.255-6.097-7.832-6.687-20.596-17.308-24.561-1.672-.58-2.852-3.288-2.36-5.802,1.77-9.089,0-18.469,2.459-27.462.688-2.611,2.557-6.092-.983-7.736-4.13-1.934-9.146-2.707-12.883-.097-2.655,1.934-1.18,5.995,1.377,8.606,1.475,1.547,1.475,3.771,1.18,5.802-1.278,9.379-3.934,18.275-7.277,26.978-4.622,11.99-13.178,21.563-17.013,34.134-2.36,7.446.787,9.67,6.491,10.927,13.571,2.901,27.044.097,40.517-.193,10.719-.483,12.883-5.028,8.753-16.342Zm-120.667,125.801c7.376-.29,14.85.774,22.127-2.321,3.049-1.257,3.442-3.094,2.262-5.415-1.672-3.191-3.147-6.575-6.687-8.316-10.228-5.222-20.554-7.736-32.06-6.189-8.359,1.16-17.013.29-25.471.29-7.572,0-9.343,6.962-10.424,12.667-1.082,5.705,4.524,4.351,7.671,5.415,13.67,4.448,27.536,4.061,42.582,3.868Zm-28.814-147.074c-2.164-4.448-5.311-3.674-8.851-2.514-1.672.58-4.425,2.031-5.212-1.16-.787-3.094,2.065-4.931,4.032-4.835,6.687.58,8.753-5.028,10.818-10.056,2.36-5.705,3.049-11.797.393-17.695-2.459-5.608-6.589-9.379-12.195-9.573-5.015-.193-5.802,5.222-7.474,9.186-3.442,8.122-5.901,16.535-7.671,25.238-3.54,17.115,3.049,29.782,17.8,34.714,3.934,1.354,5.114.29,5.015-4.158-.098-6.285-.787-12.764,3.344-19.146Zm38.747-9.186c5.901-.29,7.376-3.965,6.687-10.056-.688-6.479-.59-13.151-1.377-19.629-1.869-14.891-2.065-14.891-15.341-15.181-2.262-.097-4.524.097-6.687-.097-4.819-.483-5.507,1.16-3.639,6.092,4.524,11.894,1.18,25.914-7.179,33.167-2.164,1.934-6.786,2.514-5.901,6.769s5.114,1.934,7.769,2.804c8.556,2.611,17.702,7.639,25.668-3.868Zm-10.129,16.438c-12.195-3.578-15.538-.097-13.67,14.118.295,2.417.885,5.995,3.344,5.512,7.474-1.257,14.161,2.707,21.144,3.481,3.442.387,4.327.58,5.311,3.965.983,3.288,3.835,3.578,6.687,3.191,3.54-.483,2.36-3.578,2.557-5.802.295-4.061-2.36-6.479-4.229-9.283-1.278-1.837-5.606-2.417-3.245-5.608,2.36-3.094,5.507,0,7.966,1.741,1.475,1.064,2.262,3.094,3.54,4.448,1.082,1.064.492,5.028,3.442,2.804,2.164-1.644,2.164-3.674,1.082-6.479-2.262-5.608-5.999-9.379-10.719-12.087-1.672-.967-4.032-1.741-3.639-3.868.59-2.901,3.442-1.354,5.212-1.547,3.934-.387,6.589,3.094,9.834,4.738,2.36,1.16,4.425,4.255,6.589.677,2.262-3.674-.688-5.898-3.049-7.542-1.967-1.354-3.54-3.578-6.392-3.481-9.736.29-20.062-2.321-27.044,8.896-.688,1.257-2.459,1.45-4.72,2.127Zm117.028-143.303c1.082-1.837,1.278-3.674.295-5.608-1.672.774-1.77,2.417-2.164,3.868-4.524,17.405-14.358,29.782-28.618,37.905-12.686,7.252-26.454,8.896-40.321,8.703-7.376-.097-13.08,3.674-19.57,8.896,4.917,1.064,10.228.29,11.998,3.965,3.344,7.155,7.769,5.318,12.686,3.868,5.212-1.547,10.523-2.611,15.538-4.351,25.274-8.896,42.091-27.558,50.155-57.244Zm-173.969,57.34c2.557.774,5.015,1.741,7.572,2.127,2.557.387,5.409,2.127,7.769-1.064,3.147-4.351,6.884-7.446,12.391-6.672,1.278.193,3.344.967,2.852-2.514-1.377-10.056-16.227-18.662-23.602-13.247-3.54,2.611-7.474,4.255-11.309,3.288-8.556-2.127-9.343,6.382-10.621,11.12-1.082,3.868,5.212,3.771,8.261,5.318,1.573.967,3.737,1.16,6.687,1.644Zm57.236,16.438c9.539-.097,19.079,0,28.519-.483,1.967-.097,5.015-.774,5.114-4.641.098-2.224-.295-4.545-2.065-5.318-2.36-.967-5.114-1.547-7.671-1.354-10.719,1.064-21.439.967-32.06-.387-7.769-.967-15.637-1.16-23.504-1.741-3.442-.193-4.425,2.031-4.425,5.608,0,3.384.393,5.125,4.13,5.608,10.228,1.547,20.357,3.094,31.961,2.707Zm-68.643,66.333c5.606,2.998,7.966,11.313,4.229,17.599-4.229,7.155-9.048,4.061-13.276-.967-2.065,11.313,3.442,22.143,12.195,25.721,4.229,1.741,5.606.58,5.311-4.255-.983-12.57,3.147-25.528-2.164-38.001-1.18-2.901-.098-7.155.393-10.637.295-2.127.885-4.158,0-6.092-2.557,1.257-4.72,2.804-6.982,3.288-9.146,2.127-11.801,7.639-8.457,18.372,1.672-3.674,4.524-5.028,8.753-5.028Zm95.294,115.551h-11.113c5.901,5.512,13.08,8.896,14.85,17.212,1.082,5.415,3.737,5.028,6.884,4.641,6.196-.774,12.293-1.837,18.488-2.611,4.622-.58,3.934-3.964,2.557-6.769-1.377-2.707-3.54-4.738-6.196-6.285-7.671-4.448-15.932-5.802-25.471-6.188Zm-5.015-43.61c-2.655.87-5.311,1.837-8.064,2.611-13.473,4.061-14.161,5.222-13.08,19.533.197,2.224.197,4.158,2.852,3.868,6.196-.774,12.293-1.547,18.488-2.417,1.573-.193,3.049-.58,3.245-3.094.59-7.736,1.475-15.568,2.36-24.174-2.164,1.257-3.54,2.224-5.802,3.674Zm-91.262-149.201c-4.425-.774-8.359-2.998-11.998-5.608-2.655-1.934-5.311-.774-7.376.387-2.95,1.741.393,3.868.787,5.608.787,4.061,2.164,8.219,4.13,11.797,1.77,3.288,6.687,7.736,8.064,5.802,4.327-6.575,9.441-11.313,17.013-14.214-4.13-1.354-6.982-2.321-10.621-3.771Zm41.009,231.102c13.67.483,27.339,2.998,41.009.193,4.425-.87,8.753-1.934,12.195-5.608-12.588,1.644-25.077,1.354-37.567,1.45-12.588.097-25.077-.483-36.977-5.898,5.015,8.316,13.866,5.705,21.34,9.863Zm74.151-159.548c.393,1.547.688,3.094,1.278,4.448,2.164,4.738,6.491,4.158,9.441,2.901,3.049-1.354-.787-3.771-1.18-5.802-.885-4.738-3.54-9.67-3.147-14.118.983-9.186-5.409-11.7-9.539-17.599-.59,6.962,1.18,23.497,3.147,30.169Zm-80.936-50.765c11.998,5.608,16.128,14.118,14.456,30.362,5.114-2.901,4.72-8.413,5.507-12.764,2.065-12.57-7.277-23.594-18.292-22.143-3.442.484-3.442.677-1.672,4.545Zm117.421,16.148c-6.392-1.837-9.933,3.191-11.604,8.316-2.164,6.672-3.737,14.118.983,20.79.885,1.354,2.655,1.547,2.95.097,1.18-4.641,7.277-8.316,2.164-14.408-2.459-2.901-2.655-5.318,2.262-5.705,4.622-.387,6.884-3.288,3.245-9.089Zm-54.679,23.304c.197-12.667-1.77-25.141-3.442-37.615-.295-2.514-1.18-3.674-3.442-3.578-1.967.097-2.36,1.064-1.967,3.094,2.754,12.28,2.065,25.141,3.835,37.615.688,4.545,2.557,3.578,5.015.483Zm-63.53,129.959c8.064-.097,16.128,0,24.192-.29,2.164-.097,4.622-1.16,4.13-4.545-.59-3.771-2.95-1.45-4.72-1.354-8.261.29-16.522.387-24.684.387-1.475,0-3.147-1.741-3.54,1.45-.492,3.094.393,4.835,4.622,4.351Zm-50.057-224.624c-1.377-1.934-2.95-3.674-4.032-5.802-2.065-4.158-4.622-.58-6.884-.677-.787,0-2.36,1.257-2.262,1.644.59,2.514,2.557,3.191,4.524,3.868,6.097,2.417,9.343,7.446,10.326,14.311.393,2.321.098,4.931,3.049,4.545,2.36-.29,2.852-2.611,3.344-4.931,1.475-7.155-4.917-8.316-8.064-12.957Zm15.341,90.7c6.982-6.672,8.851-14.118,5.507-21.466-.688-1.547-1.377-3.771-3.442-2.998-1.77.58-.983,2.707-.983,4.158.295,5.995.098,11.7-4.622,16.051-1.377,1.257-4.819,2.031-3.835,4.351,1.278,2.804,4.327.967,7.376-.097Zm26.356-45.544c-7.081-.29-14.063-.483-20.554,3.384-1.18.774-2.852,1.45-2.459,3.384.393,2.224,2.262,1.837,3.54,1.547,5.606-1.354,11.113-1.741,16.817-1.45,3.835.193,5.015-2.611,2.655-6.865Zm102.277,42.643c-.197,7.639.098,15.278,4.032,21.853.787,1.354,2.065,3.868,4.327,1.837,1.672-1.547.885-3.094.098-4.738-2.262-4.738-2.852-9.863-2.262-15.085.688-5.608-1.475-6.769-6.196-3.868Zm-59.399,130.926c-.197,1.547-.787,3.191.787,4.255,2.36,1.547,22.029-1.934,23.897-4.158.983-1.16,1.573-2.707.983-4.255-.197-.483-1.573-.87-2.065-.58-7.179,4.255-15.341,1.547-23.602,4.738ZM19.38,319.122c2.852-1.45,7.966,3.094,8.753-3.481.492-3.868-2.754-5.995-5.901-6.479-3.049-.483-6.786-1.354-8.556,2.707-.983,2.321-1.672,5.705-.787,7.639.885,2.417,3.54.58,6.491-.387Zm22.914,55.89c.787,0,1.672.29,2.36.097,3.54-.967,6.491-2.804,6.491-7.542,0-2.611.885-6.092-1.967-7.252-3.934-1.547-5.114,3.191-7.474,5.318-.787.677-1.278,1.837-1.967,2.514-3.54,3.481-2.655,5.512,2.557,6.865Zm119.585,14.118c2.95,1.741,2.459-1.064,2.36-2.611-.295-5.125-.59-10.346-1.082-15.471-.885-8.606-2.065-17.018-6.196-24.754,1.475,14.118,2.852,28.042,4.917,42.836Zm-95.884,88.67c3.245-1.064,5.311-3.868,7.474-6.382,1.278-1.547.688-2.804-.098-4.255-.492-.967-1.082-2.417-2.164-1.16-6.196,7.639-14.85,10.25-22.914,14.504,5.901.58,11.408-.387,17.702-2.707Zm42.386-70.298c-.59-1.644,2.36-3.384.197-4.641-1.278-.774-3.54-.967-4.425.774-3.245,6.285-4.032,13.247-2.754,20.209.393,1.934,2.557,4.255,4.622,3.481,2.655-.967.492-3.191.197-4.931-.983-4.931.59-9.379,2.164-14.891Zm-89.787-58.888c.59,2.804.983,7.349,4.327,4.835,4.032-2.998,6.982-7.929,10.326-12.184.59-.677.787-2.321.492-3.094-.492-1.257-1.672-.677-2.655-.29-5.015,1.741-9.834,3.965-12.49,10.733Zm.983-21.95c-2.459.483-5.704-.387-6.392,3.674-.393,2.417-.59,5.512,1.278,7.059,3.049,2.514,4.425-1.837,6.589-2.901,1.475-.677,2.852-1.741,4.229-2.707,1.377-.967,4.425-.193,3.737-3.288-.492-2.224-3.049-1.741-4.72-2.031-1.278-.193-2.557.193-4.72.193Zm18.783,32.006c1.278-1.934,3.835-3.094,2.852-6.092-.393-1.064-1.869-2.707-2.459-2.611-4.622,1.16-7.277,5.125-9.441,9.379-.885,1.741-1.278,4.931.295,5.608,3.54,1.547,4.819-2.901,7.179-4.641.393-.29.688-.677,1.573-1.644Zm128.633,193.585c6.392-1.354,13.375-.193,18.882-5.318-6.589,1.16-13.178.483-19.767.677-2.36.097-6.392-.193-6.294,2.998.098,2.611,3.835,2.321,7.179,1.644Zm46.123-205.768c5.212,0,10.424.097,15.735.097,1.18,0,2.557-.097,3.049-1.644.492-1.354-.393-2.321-1.377-2.417-6.589-.483-13.178-1.16-19.767.483-.688.193-1.77,1.644-1.672,2.224.295,1.644,1.869,1.064,4.032,1.257Zm-159.611,71.361c.787,3.481,1.967,5.802,5.114,2.224,2.164-2.417,3.245-5.318,1.18-8.413-.885-1.354-1.475-3.868-3.442-2.998-3.344,1.354-3.049,4.835-2.852,9.186Zm-26.159-113.811c2.262.58,5.311,3.965,6.294,1.16,1.082-2.901-1.869-5.995-5.015-7.252-2.852-1.16-6.294-1.934-7.277,1.837-.885,3.965,3.54,2.321,5.999,4.255Zm45.041,59.178c1.18-2.321,2.36-4.545,3.54-6.769.688-1.16,1.377-2.611-.197-3.288-2.36-1.064-4.917-2.031-7.572-.774-1.278.677-1.869,2.031-1.082,3.288,1.77,2.707,1.869,6.575,5.311,7.542Zm166.79,13.634c-2.754-5.415-4.622-5.608-7.966-.58,2.557.387,4.917.87,7.966.58Zm-3.737,7.832c-1.573.29-3.737-1.354-4.425,1.45-.295,1.354,1.082,2.417,2.262,2.514,1.77.097,4.13,1.547,5.212-.967.688-1.547-1.377-1.741-3.049-2.998Zm3.344-20.886c-2.557-1.45-4.917-2.127-7.277,1.064,2.655.87,4.917,1.934,7.179,2.321,3.442.483,1.967-1.354.098-3.384Z"/>
  <path class="b" d="m420.029,237.028c13.571-.193,26.159-2.611,37.96-8.896,2.262-1.257,4.13-2.417,5.409-5.028,1.18-2.514,2.754-5.512,5.901-4.545,2.36.677,3.54,3.191,3.934,5.705.393,3.481-1.18,5.608-3.934,7.542-10.523,7.446-21.93,12.474-34.322,13.054-18.095.87-36.387,1.837-53.4-7.542-4.622-2.611-9.638-4.545-12.195-10.346-.983-2.321-.885-4.255.885-6.189,1.77-2.031,3.344-.967,4.72.387,12.883,12.377,28.814,13.731,45.041,15.858Z"/>
  <path class="b" d="m389.248,204.151c-7.474-11.12-2.164-22.143,5.802-28.332,6.884-5.318,15.145-8.799,23.701-2.804,2.655,1.837,4.622,4.255,3.442,7.639-1.278,3.578-3.639,1.837-5.999.774-5.802-2.901-11.408-2.514-16.423,2.224-3.245,3.094-6.491,6.479-5.015,12.087,1.869,7.059,7.474,8.219,12.588,9.67,2.655.677,5.704.387,8.457-.193,2.557-.483,4.425-.387,5.409,2.514.885,2.901-1.278,4.158-2.754,5.415-4.917,4.158-18.882,2.127-24.291-3.288-1.573-1.644-3.147-3.481-4.917-5.705Z"/>
  <path class="b" d="m379.118,157.834c4.622,2.998,10.326,5.415,8.654,12.377-1.672,6.575-5.901,10.54-12.785,9.283-2.459-.483-3.835-1.644-5.212-3.868-2.557-3.965-2.065-10.056-7.769-12.184-2.164-.774-.197-4.738,2.459-5.898,4.72-2.127,9.441-1.45,14.653.29Z"/>
  <path class="b" d="m438.812,138.108c-2.557-6.285,0-11.023,6.982-11.7,8.654-.87,17.407-1.064,25.372,4.061,1.672,1.064,3.54,2.707,4.229,4.545.688,1.934.787,4.835,0,6.575-1.278,2.514-3.344,0-4.72-.774-10.228-5.512-20.75-4.351-31.863-2.707Z"/>
  <path class="b" d="m394.951,126.891c.688,5.608-1.18,6.769-5.507,5.415-7.474-2.321-14.948-1.45-22.127,1.644-1.77.774-3.737,3.191-5.311.58-1.475-2.707-.492-6.092,1.475-8.026,4.72-4.641,10.523-6.769,16.817-5.608,5.015.87,10.228,1.741,14.653,5.995Z"/>
  <path class="b" d="m549.94,205.311c-1.18,1.354-5.802,13.151-6.196,14.988-.393,2.417-.688,5.125-1.869,6.962-1.377,2.224-3.442,5.608-6.294,3.868-2.754-1.644.098-4.351.492-6.285.983-4.448,2.95-8.606-3.835-8.606-1.77,0-2.36-2.321-2.164-3.481.688-5.415,3.835-9.089,8.359-10.346,3.934-1.064,8.654-3.868,11.506,2.901Z"/>
  <path class="b" d="m444.418,175.433c-3.049-.29-6.884,2.031-7.474-2.514-.59-4.351,3.54-4.351,5.999-5.028,8.654-2.417,17.112-1.934,25.372,1.837,1.967.87,4.13,1.934,3.442,4.545-.688,2.417-3.049,2.804-5.114,2.224-7.179-1.934-14.358-1.45-22.225-1.064Z"/>
  <path class="b" d="m510.013,363.022c.688-11.41,4.524-15.375,13.276-15.278,7.277.097,7.966,6.479,9.244,11.894,2.852,11.797-3.442,21.563-13.08,20.886-5.999-.483-9.343-6.479-9.441-17.502Zm7.376-6.092c-1.869,4.738-1.967,9.476-.197,14.311.983,2.804,2.754,4.255,5.015,2.901,5.999-3.578,4.032-10.153,3.344-15.471-.688-4.931-4.13-5.222-8.162-1.741Z"/>
  <path class="b" d="m414.423,442.312c14.456,3.578,21.93,16.728,31.47,26.688,1.672,1.741,1.475,4.931-.688,7.252-13.571,14.988-30.191,20.403-48.68,19.049-4.229-.29-6.687-3.481-6.884-8.703-.59-13.924,3.147-27.171,5.015-40.612.295-2.031,1.672-2.224,3.147-2.321,5.311-.483,10.719-.87,16.62-1.354Zm-17.702,47.671c14.85,1.644,28.028-3.578,40.124-12.667,3.934-2.998,4.622-6.382.688-10.25-4.524-4.448-8.851-9.186-13.276-13.731-3.344-3.481-20.357-6.382-24.094-3.965-1.573.967-2.164,2.707-2.164,4.545.098,3.288-1.672,6.189-1.869,9.186-.59,8.703-4.13,17.502.59,26.881Z"/>
  <path class="b" d="m148.898,222.62c-.983,3.868-2.95,5.705-5.999,4.351-2.557-1.16-2.164-4.061-1.672-6.575,1.573-8.896,7.277-13.731,14.063-17.115,1.672-.87,4.425-1.45,5.901,1.547s-1.18,4.448-2.36,5.415c-3.934,3.384-7.277,7.252-9.933,12.377Z"/>
  <g>
    <path class="c" d="m222.655,435.35c-6.589-.193-12.785.87-18.587-1.45-5.015-1.934-7.179-5.512-4.327-11.41,1.082-2.127,1.475-4.738,2.557-6.769,2.557-4.738,4.819-9.96,11.113-8.993,2.754.387,5.704,0,8.457,0,12.391,0,14.555,1.837,19.177,14.988,2.557,7.059.197,10.54-5.901,12.377-3.934,1.257-7.867,1.16-12.49,1.257Zm9.146-22.433c-5.114-5.125-11.113-1.45-16.718-2.127-5.015-.677-12.883,10.25-12.096,15.761.393,2.998,2.36,3.384,4.524,3.384,5.704.097,11.309.387,17.013.097,4.72-.193,11.014,2.031,13.375-3.578,1.77-4.351-3.639-8.316-6.097-13.537Z"/>
    <path class="d" d="m212.034,406.535c.492,0,.885,0,1.377.097.983.097,1.967.193,2.95.193,1.77,0,3.639-.097,5.409-.097h.098c12.391,0,14.555,1.837,19.177,14.988,2.557,7.059.197,10.54-5.901,12.377-4.032,1.257-7.966,1.16-12.588,1.257h-1.77c-2.36,0-4.72.097-6.982.097-3.442,0-6.687-.29-9.834-1.45-5.015-1.934-7.179-5.512-4.327-11.41,1.082-2.127,1.475-4.738,2.557-6.769,2.459-4.545,4.524-9.283,9.834-9.283m4.72,4.351c-.59,0-1.082,0-1.672-.097h-.492c-5.015,0-12.391,10.443-11.604,15.858.393,2.998,2.36,3.384,4.524,3.384,3.835.097,7.671.193,11.506.193,1.869,0,3.639,0,5.507-.097h.787c1.869,0,3.835.29,5.802.29,2.852,0,5.507-.677,6.786-3.868,1.869-4.448-3.639-8.316-6.097-13.537-2.164-2.224-4.524-2.804-6.982-2.804-2.655,0-5.409.677-8.064.677m-4.72-5.608c-5.606,0-8.064,4.641-10.228,8.799-.197.29-.295.677-.492.967-.688,1.257-1.082,2.514-1.475,3.868-.393,1.064-.688,2.127-1.082,2.998-1.475,2.998-1.77,5.705-.983,7.929.787,2.321,2.852,4.061,5.901,5.318,3.54,1.354,7.179,1.547,10.228,1.547,1.18,0,2.262,0,3.442-.097,1.18,0,2.36-.097,3.54-.097h3.049c4.229-.097,7.867-.097,11.703-1.257,3.737-1.16,5.901-2.804,6.982-5.222,1.082-2.321.983-5.222-.393-8.896-4.819-13.634-7.474-15.761-20.259-15.761h-.098c-.885,0-1.869,0-2.754.097-.885,0-1.77.097-2.655.097-1.082,0-1.967-.097-2.852-.193-.59-.097-1.082-.097-1.573-.097h0Zm4.72,6.865c1.377,0,2.852-.193,4.229-.387,1.377-.193,2.655-.387,3.934-.387,2.459,0,4.327.677,5.999,2.321.885,1.837,2.065,3.384,3.147,4.931,2.262,3.191,3.639,5.222,2.754,7.252-.885,2.224-2.557,3.094-5.704,3.094-.885,0-1.869-.097-2.852-.097-.983-.097-1.967-.097-2.852-.097h-.787c-1.672.097-3.442.097-5.409.097-2.459,0-5.015-.097-7.376-.097-1.377,0-2.754-.097-4.13-.097-2.36,0-3.049-.58-3.344-2.321-.295-2.321,1.278-6.285,3.934-9.67,2.262-2.901,4.72-4.641,6.491-4.641h.295c.393.097.983.097,1.672.097h0Z"/>
  </g>
</svg>