<?xml version="1.0" encoding="utf-8"?>
<!-- Generator: Adobe Illustrator 28.1.0, SVG Export Plug-In . SVG Version: 6.00 Build 0)  -->
<svg version="1.1" id="Artwork" xmlns="http://www.w3.org/2000/svg" xmlns:xlink="http://www.w3.org/1999/xlink" x="0px" y="0px"
	 viewBox="0 0 249 76" style="enable-background:new 0 0 249 76;" xml:space="preserve">
<style type="text/css">
	.st0{fill:#183E75;}
	.st1{fill:#007CC1;}
	.st2{fill:#009EDF;}
	.st3{fill:#0069B4;}
	.st4{fill:#004994;}
</style>
<g>
	<g>
		<path class="st0" d="M9.9560213,32.3059692c0,0.8412018-0.1429415,1.5394592-0.4280939,2.0947723
			c-0.2853355,0.5558662-0.6907635,0.9989471-1.2162848,1.3290672c-0.5258865,0.3304825-1.1638236,0.5631752-1.9145422,0.6982574
			c-0.7510839,0.1350822-1.5846062,0.202713-2.5003839,0.202713H0V21.6067238
			c0.6154538-0.0597725,1.2011129-0.1087589,1.7569772-0.1464138c0.5553159-0.0372887,1.1938013-0.0562992,1.9145421-0.0562992
			c1.0360537,0,1.9107037,0.0826206,2.6241331,0.2476807c0.7130637,0.1654243,1.2873898,0.4054279,1.7231607,0.7209225
			c0.4354057,0.3153133,0.7507191,0.7094078,0.9461212,1.1824684c0.1948538,0.4730606,0.2928295,1.0100975,0.2928295,1.6105633
			c0,0.5258865-0.0754919,0.9876137-0.2253799,1.3851814c-0.1502533,0.3981171-0.3343229,0.7399349-0.5518427,1.0249043
			c-0.217886,0.2855167-0.4544163,0.5182095-0.7095909,0.6982574c-0.2553577,0.1802311-0.4880495,0.3154945-0.6982579,0.4054279
			c0.2401862,0.0603199,0.5293598,0.1615868,0.8673387,0.304163c0.3377953,0.1429405,0.6531086,0.3491287,0.9459381,0.6194744
			c0.2928295,0.2703476,0.5441656,0.6233139,0.7545567,1.0587196C9.8507347,31.0973625,9.9560213,31.6453667,9.9560213,32.3059692z
			 M7.2980723,25.2332783c0-0.4653835-0.0939541-0.8446732-0.2816792-1.1375027
			c-0.1879082-0.2928295-0.4469213-0.5182095-0.7770405-0.6757755c-0.3304839-0.1577473-0.724762-0.2665062-1.182651-0.3266449
			c-0.4580717-0.0597725-0.9572711-0.0901146-1.4977808-0.0901146c-0.360462,0-0.6757746,0.0076771-0.946121,0.0224819
			c-0.2701635,0.015173-0.4880493,0.0376549-0.6531086,0.0676327v4.9554367h2.1397393
			c0.9309497,0,1.6968393-0.2438431,2.2976699-0.7320747C6.9973831,26.8290348,7.2980723,26.1342487,7.2980723,25.2332783z
			 M3.3786898,34.9864006c0.6757746,0,1.2912283-0.0297928,1.8470926-0.0897484
			c0.555316-0.0597725,1.0360537-0.182972,1.4414821-0.3697853c0.4054279-0.1869926,0.7209234-0.4597168,0.9461207-0.8187141
			c0.2251973-0.3590012,0.3377957-0.8371773,0.3377957-1.4356346c0-0.5233269-0.105104-0.9534321-0.3153124-1.2897644
			c-0.2103915-0.3365173-0.495544-0.6054001-0.8560057-0.8073845c-0.3602791-0.2021656-0.7697287-0.3403549-1.2274346-0.4149323
			c-0.4582543-0.0747623-0.9347878-0.1124153-1.4303317-0.1124153H1.9596913v5.3383789H3.3786898z"/>
		<path class="st0" d="M16.7581844,35.324379c0.4354057,0,0.8143291-0.0451469,1.1375027-0.1352615
			c0.3228073-0.0901184,0.6004639-0.2027168,0.8333397-0.3377991c0.2326908-0.1350784,0.4315662-0.273819,0.5969906-0.4167595
			c0.16506-0.1425743,0.3001423-0.273819,0.4054298-0.3940964c0.1650581,0.210392,0.3114738,0.4355888,0.4392433,0.6757774
			c0.1274052,0.2403679,0.1913815,0.4279099,0.1913815,0.5629921c0,0.1215553-0.0376549,0.2467651-0.1125984,0.3763657
			c-0.0753098,0.1294136-0.2027149,0.2624855-0.382946,0.399395c-0.3454723,0.2590141-0.788372,0.4761658-1.3288822,0.6510963
			s-1.1938019,0.2624893-1.959692,0.2624893c-0.7059345,0-1.3703756-0.1012688-1.9935074-0.3039818
			c-0.6231308-0.202713-1.1698551-0.5293579-1.6396255-0.9799385c-0.4703188-0.4503937-0.8419304-1.0395241-1.1150188-1.7681274
			c-0.2734537-0.7282333-0.4099979-1.6178741-0.4099979-2.669281c0-0.9459381,0.1387377-1.7642879,0.4167614-2.4550514
			c0.2776575-0.6905804,0.6419582-1.2575951,1.0923529-1.7006779c0.4505768-0.4427166,0.9647655-0.7693634,1.5429296-0.9797535
			c0.5779819-0.2102089,1.1747913-0.3154964,1.7907944-0.3154964c0.7658882,0,1.4226532,0.1277695,1.9708405,0.382946
			c0.5480042,0.2555389,0.9947433,0.5969906,1.3402157,1.0249023c0.3452911,0.4279118,0.6004658,0.9234543,0.7658901,1.4866314
			c0.16506,0.5631752,0.2478638,1.1451797,0.2478638,1.7456436c0,0.2105751-0.0038395,0.4244385-0.0113335,0.6419582
			c-0.0076771,0.217886-0.0263214,0.4244385-0.0562992,0.6194763h-7.0953579
			c0.0451488,1.0896091,0.3339567,1.9662724,0.8673382,2.6305294C14.8246326,34.9924355,15.6466389,35.324379,16.7581844,35.324379z
			 M18.6727276,30.2561626c0-0.4054279-0.0411282-0.7805119-0.1233845-1.1261692
			c-0.0824375-0.3452892-0.2208099-0.6492691-0.4151154-0.9123039c-0.1941223-0.2624874-0.4522228-0.4690399-0.7735672-0.6192932
			c-0.3217106-0.1500702-0.7139778-0.2253799-1.1775322-0.2253799c-0.7774067,0-1.4166231,0.2555408-1.9174681,0.7658901
			c-0.5012102,0.5107155-0.7812443,1.2162857-0.8411989,2.1172562H18.6727276z"/>
		<path class="st0" d="M22.7270088,35.279232c-0.1052876-0.2849693-0.1690807-0.5968094-0.1915646-0.9347878
			c-0.0224819-0.3377953-0.0338154-0.6717529-0.0338154-1.0022392V22.8005257h0.1352634
			c0.0297947,0,0.071106-0.0034733,0.1239319-0.0113335c0.0522785-0.0073109,0.1012669-0.0111504,0.1464157-0.0111504
			c0.4054279,0,0.7580299,0.104557,1.0585365,0.3131199c0.3003235,0.2091122,0.4505768,0.5893154,0.4505768,1.1407928v1.7896957
			h3.3562069v1.6441956h-3.3562069v5.8114414c0,1.2314568,0.4876842,1.8470917,1.4641476,1.8470917
			c0.2400036,0,0.4652004-0.0413094,0.6755924-0.1239281c0.2102089-0.0824394,0.3977509-0.180233,0.5631752-0.2928314
			c0.16506-0.1125984,0.304163-0.2213593,0.4167614-0.3266449c0.1125984-0.1049232,0.1837044-0.180233,0.2140465-0.2251968
			c0.180048,0.2251968,0.3339577,0.4430809,0.461729,0.6532898c0.1274033,0.210392,0.1913795,0.413105,0.1913795,0.6081429
			c0,0.1350822-0.0676308,0.281498-0.202713,0.4392433c-0.1350822,0.1575661-0.3229904,0.3039818-0.5631771,0.4392433
			c-0.2403679,0.1350822-0.5370369,0.2476807-0.8896389,0.3377991c-0.3529663,0.0901146-0.7397499,0.1350822-1.1599846,0.1350822
			c-0.7810612,0-1.4043751-0.1502533-1.8695755-0.4503975C23.252346,36.2178574,22.9218616,35.8051186,22.7270088,35.279232z"/>
		<path class="st0" d="M36.8948746,30.3013115c0-0.2851524-0.0038376-0.5593357-0.0113297-0.8221893
			c-0.007679-0.2624855-0.0488052-0.506876-0.1239319-0.7320728c-0.1051064-0.3902569-0.3229904-0.6905804-0.6531105-0.9009724
			c-0.3304825-0.2100258-0.8187141-0.3153114-1.4641457-0.3153114c-0.4206009,0-0.8073845,0.0489864-1.1599846,0.1464138
			c-0.3529701,0.0977936-0.6532936,0.2217236-0.9009743,0.3716125c-0.2478638,0.1502533-0.4392433,0.3231716-0.5745087,0.5180264
			c-0.1350822,0.1954021-0.202713,0.3908043-0.202713,0.585659v7.478302h-1.9145432V20.6606026h0.1125984
			c0.0299778,0,0.071106-0.0034714,0.1239319-0.0111485c0.0524616-0.0074959,0.1012669-0.0113335,0.1464157-0.0113335
			c0.4202328,0,0.7770405,0.1052876,1.06987,0.3153114c0.2928295,0.2105751,0.4392433,0.600832,0.4392433,1.17132v5.0005836
			c0.390255-0.4354057,0.8857994-0.7658901,1.4866295-0.991087c0.6004677-0.2253799,1.2389526-0.3379784,1.9145432-0.3379784
			c0.5255203,0,0.9872475,0.0641594,1.3853645,0.1915646c0.3977509,0.1277695,0.7355461,0.3005066,1.0135727,0.5180264
			c0.2776566,0.217886,0.5068741,0.4695873,0.6871071,0.7545567c0.1802292,0.2855186,0.3076363,0.585659,0.382946,0.9009724
			c0.0749435,0.3006897,0.1199074,0.6346474,0.1350784,1.0024204c0.0148087,0.3681393,0.0224838,0.7245789,0.0224838,1.06987
			v6.3970985h-1.9145432V30.3013115z"/>
		<path class="st0" d="M47.3462601,36.6307793h-2.0048409V21.539093c0.0606842,0,0.1215553-0.0073128,0.1824226-0.0224838
			c0.0605049,0,0.1213722-0.0034733,0.1822433-0.0113335c0.0605011-0.0073109,0.1288643-0.0111504,0.2049065-0.0111504
			c0.1365433,0,0.2846031,0.0190105,0.4441795,0.0562992c0.1593933,0.0376549,0.314949,0.1052876,0.4670296,0.2027149
			c0.1518974,0.0977917,0.2772903,0.2403679,0.3758163,0.4279118c0.0985222,0.1879082,0.148243,0.4319324,0.148243,0.7320728
			V36.6307793z"/>
		<path class="st0" d="M55.8129082,26.4044132c0.301239,0.1654243,0.5043182,0.319334,0.6099701,0.4619102
			c0.1054688,0.1427593,0.1582947,0.281496,0.1582947,0.4165783c0,0.1654243-0.0414925,0.3569889-0.1244774,0.5745087
			c-0.0831718,0.217886-0.184803,0.4317493-0.3052597,0.6419582l-0.3167763,0.0224838
			c-0.2560883-0.3153133-0.629528-0.5891323-1.1194077-0.8221893c-0.4904251-0.2326927-1.0144844-0.3491287-1.5718079-0.3491287
			c-0.1964989,0-0.4110947,0.0190086-0.644886,0.0562992c-0.2336044,0.0376549-0.4525871,0.1052856-0.6560326,0.202713
			c-0.2034454,0.0977936-0.3730736,0.2365303-0.5088844,0.4167614c-0.1358147,0.1802311-0.2034454,0.4054279-0.2034454,0.6757755
			c0,0.4807377,0.2147751,0.8260269,0.644516,1.0360527c0.4293747,0.2105732,0.960743,0.3906231,1.5942955,0.5406933
			c0.4522209,0.1051044,0.8892708,0.2365303,1.3116989,0.3940945c0.4218788,0.1577473,0.7949524,0.3604622,1.1192245,0.6081429
			c0.3240852,0.2478619,0.5803566,0.5597019,0.7689972,0.9347878c0.1882744,0.3756332,0.2825928,0.841198,0.2825928,1.3965149
			c0,0.5558662-0.1129646,1.0400734-0.3388939,1.4529991c-0.2259293,0.413105-0.5273476,0.7583961-0.9038963,1.0360527
			c-0.376545,0.2780228-0.8168869,0.4882317-1.3215714,0.630806c-0.5046806,0.142395-1.0280113,0.2138672-1.5699806,0.2138672
			c-0.5271683,0-1.0016899-0.0414963-1.4233856-0.1239319c-0.4215164-0.0826225-0.7755814-0.1840706-1.0614624-0.3039818
			c-0.3765488-0.1498871-0.6401329-0.3041611-0.7907486-0.4617271c-0.1506195-0.1577454-0.2259293-0.3189659-0.2259293-0.4843941
			c0-0.1948509,0.0524597-0.3975677,0.1575661-0.608139c0.1049194-0.2100258,0.2400017-0.4503975,0.405426-0.7207413
			c0.1049232,0.0901146,0.2513351,0.202713,0.4392433,0.3377953c0.1877251,0.1352654,0.4129257,0.2630348,0.6757774,0.382946
			c0.2626686,0.1204567,0.5518417,0.2217216,0.8671532,0.3041611c0.3154945,0.0826225,0.6532936,0.1237488,1.0137558,0.1237488
			c0.2701607,0,0.5328293-0.0263214,0.788372-0.0791473c0.2551727-0.0528259,0.484211-0.1396523,0.686924-0.2608414
			c0.202713-0.121006,0.367775-0.2871628,0.4955444-0.4986534c0.1274033-0.2114868,0.1915627-0.4761658,0.1915627-0.7936745
			c0-0.3173218-0.0676308-0.5777969-0.202713-0.7819748c-0.1352654-0.204174-0.3154945-0.3741684-0.5406914-0.5103493
			c-0.2252007-0.1358109-0.476902-0.2456703-0.7545586-0.3286552c-0.2780228-0.083168-0.5597038-0.1548233-0.8446732-0.2155094
			c-0.4357719-0.0897503-0.8525314-0.2054558-1.2500992-0.3476677c-0.3981171-0.14221-0.7510834-0.332859-1.0587196-0.5723152
			c-0.3080025-0.2392712-0.5556831-0.5388641-0.7434082-0.8978634c-0.1879082-0.3588161-0.281498-0.7925777-0.281498-1.3014641
			c0-0.4937172,0.1052895-0.9314976,0.3164101-1.3131638c0.2107582-0.3814831,0.4970055-0.6953335,0.8583832-0.9424648
			c0.361557-0.246767,0.7719231-0.4335785,1.2314568-0.5609837c0.4593506-0.127039,0.9377098-0.1908321,1.4349022-0.1908321
			c0.5723152,0,1.0956421,0.0603218,1.5701637,0.1802311C55.1462708,26.0969601,55.5268402,26.2393532,55.8129082,26.4044132z"/>
		<path class="st0" d="M59.1937904,25.9765015c0.3452911,0,0.656765,0.0866432,0.9347878,0.2590141
			c0.2776604,0.1729183,0.4465561,0.4617271,0.5068779,0.8673382c0.2100258-0.3154964,0.5253372-0.6117992,0.9459381-0.889822
			c0.4202347-0.2776585,0.9084663-0.4167614,1.4641457-0.4167614c0.165062,0,0.3414536,0.0151711,0.5293617,0.0451488
			c0.187542,0.0301609,0.3639336,0.078783,0.5293617,0.1464157c0.1650543,0.0674496,0.3001404,0.1615868,0.405426,0.281496
			c0.1049194,0.1204586,0.1575623,0.2780228,0.1575623,0.4730606c0,0.2403679-0.0601349,0.499382-0.1800461,0.7770405
			c-0.1204605,0.2780228-0.2405548,0.506876-0.3604584,0.6871071c-0.1954041-0.1802311-0.4054298-0.3189678-0.6306305-0.4167614
			c-0.2253799-0.0974274-0.5107117-0.1464138-0.8560028-0.1464138c-0.2555428,0-0.499382,0.0414925-0.7320747,0.12393
			c-0.2330589,0.0826225-0.4392433,0.1952209-0.6194763,0.3377972c-0.1802292,0.1429405-0.3229904,0.304163-0.4279099,0.4843922
			c-0.1052856,0.1800499-0.1577492,0.3681393-0.1577492,0.562994v7.478302h-1.9145393v-10.631794h0.1575623
			c0.0451508,0,0.0901146-0.0034733,0.1352654-0.0111504C59.1261597,25.980341,59.1634483,25.9765015,59.1937904,25.9765015z"/>
		<path class="st0" d="M73.8796844,34.1755447c0,0.3604622,0.0148087,0.6419601,0.0451508,0.8446732
			c0.0297928,0.202713,0.0860901,0.3529663,0.1688995,0.4505768c0.0822525,0.0977936,0.1950378,0.1615868,0.3377914,0.1913834
			c0.1425781,0.0303421,0.3266449,0.0451469,0.5518417,0.0451469v0.9009743
			c-0.1350784,0.0449638-0.3005066,0.0822525-0.4955368,0.1125984c-0.1952209,0.0299759-0.397934,0.0449638-0.6081467,0.0449638
			c-0.4712296,0-0.8815918-0.0939522-1.2314529-0.2814941c-0.3498611-0.1875458-0.5549545-0.5214996-0.6156387-1.0024223
			c-0.3754501,0.3756332-0.8260269,0.6947861-1.3513641,0.9574547c-0.5258865,0.2624855-1.2164688,0.3940964-2.0722885,0.3940964
			c-0.390625,0-0.7849045-0.0449677-1.1826553-0.1350822c-0.397934-0.0901146-0.7583923-0.2551765-1.0811996-0.4955444
			c-0.3229904-0.2400017-0.5895004-0.5631752-0.7995224-0.968605c-0.2105789-0.405426-0.3153152-0.9234543-0.3153152-1.5542641
			c0-0.7805099,0.1986923-1.4189949,0.5968094-1.9145412c0.3977509-0.4955425,0.8898239-0.8859825,1.4754791-1.1713181
			c0.5854797-0.2851524,1.2124481-0.4803715,1.8807297-0.585659c0.6680908-0.1049213,1.2800751-0.1650581,1.8357544-0.1802311
			c0.1352692,0,0.2928314,0,0.4730606,0c0.1802368,0,0.3377991,0.007679,0.4730606,0.0224838v-0.3377953
			c0-0.6757755-0.1615829-1.1899624-0.4843903-1.5429306c-0.3229904-0.352602-0.9424667-0.5293598-1.8582458-0.5293598
			c-0.6757736,0-1.2466278,0.0866432-1.7118225,0.2590141c-0.4657516,0.1727352-0.9161453,0.4092655-1.3515549,0.7095909H66.333931
			c-0.1204605-0.1950378-0.2217255-0.4054298-0.3041611-0.6308098c-0.0826187-0.2251968-0.1239319-0.4054279-0.1239319-0.5405083
			c0-0.1950378,0.1200943-0.3791065,0.360466-0.5518436c0.2399979-0.172554,0.5518417-0.3266468,0.9347839-0.4617271
			c0.3829422-0.1352654,0.8070145-0.2401867,1.272583-0.3154964c0.4653854-0.0749435,0.9236374-0.1125984,1.3740311-0.1125984
			c0.765892,0,1.4051056,0.0828037,1.9178314,0.2478638c0.5127258,0.1654243,0.9287567,0.413105,1.2480927,0.7432232
			c0.3187866,0.3304844,0.5430679,0.7434082,0.6721191,1.2389507c0.1292343,0.4955444,0.1939392,1.0663967,0.1939392,1.7118282
			V34.1755447z M71.9876251,31.2924004h-0.6532898c-0.4807358,0-0.9684219,0.0303421-1.4639664,0.0901146
			c-0.4955444,0.0601387-0.9461212,0.1727371-1.3515472,0.3377953c-0.405426,0.1654263-0.7359161,0.3942795-0.9910889,0.6871071
			c-0.2555389,0.2928314-0.3829422,0.679615-0.3829422,1.1599846c0,0.4505806,0.1350784,0.8485107,0.405426,1.1938019
			c0.2703476,0.3456573,0.773201,0.5180283,1.5091171,0.5180283c0.3904343,0,0.7620468-0.0563011,1.1150131-0.1688995
			c0.3526077-0.1125984,0.664444-0.2513351,0.9347916-0.4167595c0.2703476-0.1650581,0.4843903-0.345108,0.6419601-0.5405121
			c0.1577454-0.195034,0.2365265-0.3829422,0.2365265-0.5631752V31.2924004z"/>
		<path class="st0" d="M81.3804703,35.324379c0.4354095,0,0.8143311-0.0451469,1.1375046-0.1352615
			c0.3228073-0.0901184,0.6004639-0.2027168,0.8333359-0.3377991c0.2326965-0.1350784,0.431572-0.273819,0.5969925-0.4167595
			c0.165062-0.1425743,0.3001404-0.273819,0.4054337-0.3940964c0.1650543,0.210392,0.31147,0.4355888,0.4392395,0.6757774
			c0.1274033,0.2403679,0.1913834,0.4279099,0.1913834,0.5629921c0,0.1215553-0.0376587,0.2467651-0.1126022,0.3763657
			c-0.0753098,0.1294136-0.202713,0.2624855-0.3829422,0.399395c-0.3454742,0.2590141-0.7883759,0.4761658-1.3288803,0.6510963
			c-0.5405121,0.1749306-1.1938019,0.2624893-1.9596939,0.2624893c-0.7059326,0-1.3703766-0.1012688-1.9935074-0.3039818
			s-1.1698532-0.5293579-1.6396255-0.9799385c-0.4703217-0.4503937-0.8419342-1.0395241-1.1150208-1.7681274
			c-0.2734528-0.7282333-0.409996-1.6178741-0.409996-2.669281c0-0.9459381,0.1387405-1.7642879,0.4167633-2.4550514
			c0.2776566-0.6905804,0.6419525-1.2575951,1.0923538-1.7006779c0.4505768-0.4427166,0.9647598-0.7693634,1.542923-0.9797535
			c0.5779877-0.2102089,1.1747971-0.3154964,1.7907944-0.3154964c0.765892,0,1.4226608,0.1277695,1.9708405,0.382946
			c0.5480118,0.2555389,0.9947433,0.5969906,1.3402176,1.0249023c0.3452911,0.4279118,0.6004639,0.9234543,0.765892,1.4866314
			c0.165062,0.5631752,0.2478638,1.1451797,0.2478638,1.7456436c0,0.2105751-0.0038376,0.4244385-0.0113297,0.6419582
			c-0.0076828,0.217886-0.026329,0.4244385-0.0563049,0.6194763h-7.0953598
			c0.0451508,1.0896091,0.3339615,1.9662724,0.8673401,2.6305294C79.4469223,34.9924355,80.2689285,35.324379,81.3804703,35.324379z
			 M83.2950134,30.2561626c0-0.4054279-0.0411301-0.7805119-0.1233826-1.1261692
			c-0.0824356-0.3452892-0.2208099-0.6492691-0.4151154-0.9123039c-0.1941223-0.2624874-0.4522247-0.4690399-0.7735672-0.6192932
			c-0.3217087-0.1500702-0.7139816-0.2253799-1.177536-0.2253799c-0.7774048,0-1.4166183,0.2555408-1.9174652,0.7658901
			c-0.5012054,0.5107155-0.7812424,1.2162857-0.8412018,2.1172562H83.2950134z"/>
		<path class="st0" d="M89.0613098,34.5135231c0,0.2251968,0.007309,0.4165802,0.0224838,0.5743256
			c0.014801,0.1575661,0.0562973,0.28936,0.1239243,0.3940964c0.0676346,0.1052895,0.1723709,0.1840706,0.3153152,0.2365303
			c0.1425781,0.0528259,0.3491287,0.0789642,0.6194763,0.0789642v0.8108597
			c-0.1350784,0.0449638-0.3191528,0.0822525-0.5518417,0.1125984c-0.2330551,0.0299759-0.461731,0.0449638-0.6871109,0.0449638
			c-0.435585,0-0.7695465-0.0674477-1.0022354-0.202713c-0.2330551-0.1350822-0.405426-0.3153114-0.5180283-0.5405083
			c-0.1127777-0.2252007-0.1802292-0.4765358-0.2028961-0.7545586c-0.0224838-0.2776566-0.0336304-0.5518417-0.0336304-0.8221893
			V20.6606026h0.1350784c0.0299759,0,0.071106-0.0034714,0.1239319-0.0111485
			c0.0524597-0.0074959,0.101265-0.0113335,0.1464157-0.0113335c0.4202347,0,0.7770386,0.1091251,1.06987,0.3266449
			c0.2928314,0.217886,0.4392471,0.6119804,0.4392471,1.1824684V34.5135231z"/>
		<path class="st0" d="M95.8411713,21.539093c0.0597687,0,0.1199112-0.0073128,0.1802292-0.0224838
			c0.0597687,0,0.1199112-0.0034733,0.1800461-0.0113335c0.0599594-0.0073109,0.1274033-0.0111504,0.202713-0.0111504
			c0.1352692,0,0.2816849,0.0190105,0.4392471,0.0562992c0.1577454,0.0376549,0.3076324,0.1052876,0.4505768,0.2027149
			c0.1425781,0.0977917,0.2624893,0.2403679,0.360466,0.4279118c0.0974274,0.1879082,0.1464081,0.4319324,0.1464081,0.7320728
			v12.0058289h5.2257843c0.4803772,0,0.8256607,0.116436,1.0360565,0.3491287
			c0.2102051,0.2328758,0.3153076,0.5145531,0.3153076,0.8446732c0,0.0753098-0.0038376,0.1427574-0.0111465,0.202713
			c-0.0078583,0.0601387-0.0113297,0.1125984-0.0113297,0.1575661v0.1577454h-8.5143585V21.539093z"/>
		<path class="st0" d="M113.7931595,34.1755447c0,0.3604622,0.0149841,0.6419601,0.0453262,0.8446732
			c0.0296173,0.202713,0.0859146,0.3529663,0.1688995,0.4505768c0.0822525,0.0977936,0.1948547,0.1615868,0.3377991,0.1913834
			c0.1425705,0.0303421,0.3264618,0.0451469,0.5516586,0.0451469v0.9009743
			c-0.134903,0.0449638-0.3005066,0.0822525-0.4953613,0.1125984c-0.1952209,0.0299759-0.3981171,0.0449638-0.6083221,0.0449638
			c-0.4712372,0-0.8814163-0.0939522-1.2312775-0.2814941c-0.3498611-0.1875458-0.5549469-0.5214996-0.6158218-1.0024223
			c-0.3754501,0.3756332-0.8260269,0.6947861-1.3513641,0.9574547c-0.5258865,0.2624855-1.2164688,0.3940964-2.0722885,0.3940964
			c-0.390625,0-0.7849045-0.0449677-1.1826553-0.1350822c-0.397934-0.0901146-0.7583923-0.2551765-1.0811996-0.4955444
			c-0.3229904-0.2400017-0.5895004-0.5631752-0.7995224-0.968605c-0.2105713-0.405426-0.3153152-0.9234543-0.3153152-1.5542641
			c0-0.7805099,0.1986923-1.4189949,0.5968094-1.9145412c0.3977509-0.4955425,0.8898239-0.8859825,1.4754791-1.1713181
			c0.5854797-0.2851524,1.2124481-0.4803715,1.8807297-0.585659c0.6680984-0.1049213,1.2800751-0.1650581,1.835762-0.1802311
			c0.1352615,0,0.2928238,0,0.4730606,0c0.1802292,0,0.3377914,0.007679,0.4730606,0.0224838v-0.3377953
			c0-0.6757755-0.1615906-1.1899624-0.4843979-1.5429306c-0.3229904-0.352602-0.9424667-0.5293598-1.8582382-0.5293598
			c-0.6757812,0-1.2466278,0.0866432-1.7118301,0.2590141c-0.4657516,0.1727352-0.9161453,0.4092655-1.3515472,0.7095909h-0.2251968
			c-0.1204605-0.1950378-0.2217255-0.4054298-0.3041687-0.6308098c-0.0826187-0.2251968-0.1239319-0.4054279-0.1239319-0.5405083
			c0-0.1950378,0.1200943-0.3791065,0.360466-0.5518436c0.2400055-0.172554,0.5518417-0.3266468,0.9347839-0.4617271
			c0.3829498-0.1352654,0.8070221-0.2401867,1.2725906-0.3154964c0.4653778-0.0749435,0.9236374-0.1125984,1.3740311-0.1125984
			c0.7658844,0,1.4051056,0.0828037,1.9178314,0.2478638c0.5129089,0.1654243,0.9289398,0.413105,1.248085,0.7432232
			c0.3187866,0.3304844,0.5432587,0.7434082,0.6723022,1.2389507c0.1290512,0.4955444,0.1937637,1.0663967,0.1937637,1.7118282
			V34.1755447z M111.9011002,31.2924004h-0.6532974c-0.4807358,0-0.9684219,0.0303421-1.4639587,0.0901146
			c-0.4955444,0.0601387-0.9461212,0.1727371-1.3515549,0.3377953c-0.405426,0.1654263-0.7359085,0.3942795-0.9910812,0.6871071
			c-0.2555466,0.2928314-0.3829498,0.679615-0.3829498,1.1599846c0,0.4505806,0.1350861,0.8485107,0.405426,1.1938019
			c0.2703476,0.3456573,0.7732086,0.5180283,1.5091171,0.5180283c0.3904419,0,0.7620544-0.0563011,1.1150208-0.1688995
			c0.3526001-0.1125984,0.6644363-0.2513351,0.9347839-0.4167595c0.2703476-0.1650581,0.4843979-0.345108,0.6419601-0.5405121
			c0.1577454-0.195034,0.2365341-0.3829422,0.2365341-0.5631752V31.2924004z"/>
		<path class="st0" d="M123.4403458,30.3013115c0-0.2851524-0.0036545-0.5593357-0.0113297-0.8221893
			c-0.0076828-0.2624855-0.0486221-0.506876-0.1239319-0.7320728c-0.1049194-0.3902569-0.3228073-0.6905804-0.6529312-0.9009724
			c-0.3304825-0.2100258-0.8188934-0.3153114-1.4641418-0.3153114c-0.420784,0-0.8075714,0.0489864-1.1599884,0.1464138
			c-0.3531494,0.0977936-0.6532898,0.2217236-0.9011536,0.3716125c-0.2478638,0.1502533-0.439064,0.3231716-0.5743256,0.5180264
			c-0.1352615,0.1954021-0.2028961,0.3908043-0.2028961,0.585659v7.478302h-1.9145432V20.6606026h0.1125946
			c0.0299835,0,0.0712891-0.0034714,0.1239319-0.0111485c0.0526505-0.0074959,0.1012726-0.0113335,0.1465988-0.0113335
			c0.4200516,0,0.7768631,0.1052876,1.0696869,0.3153114c0.2928314,0.2105751,0.4394302,0.600832,0.4394302,1.17132v5.0005836
			c0.3900757-0.4354057,0.8857956-0.7658901,1.4864502-0.991087c0.600647-0.2253799,1.238945-0.3379784,1.9145355-0.3379784
			c0.5257111,0,0.9874344,0.0641594,1.3855515,0.1915646c0.3977509,0.1277695,0.7355499,0.3005066,1.0133896,0.5180264
			c0.2778397,0.217886,0.5070572,0.4695873,0.6872864,0.7545567c0.1802292,0.2855186,0.307457,0.585659,0.3827667,0.9009724
			c0.0749435,0.3006897,0.1199112,0.6346474,0.1352615,1.0024204c0.0146255,0.3681393,0.0223007,0.7245789,0.0223007,1.06987
			v6.3970985h-1.9145432V30.3013115z"/>
		<path class="st0" d="M132.6594391,35.324379c0.4354095,0,0.8141479-0.0451469,1.1373291-0.1352615
			c0.3227997-0.0901184,0.600647-0.2027168,0.8335114-0.3377991c0.2325134-0.1350784,0.4313965-0.273819,0.5970001-0.4167595
			c0.1648712-0.1425743,0.3001404-0.273819,0.405426-0.3940964c0.1648712,0.210392,0.3114777,0.4355888,0.4390564,0.6757774
			c0.127594,0.2403679,0.1915741,0.4279099,0.1915741,0.5629921c0,0.1215553-0.0376587,0.2467651-0.1126099,0.3763657
			c-0.0753021,0.1294136-0.2028961,0.2624855-0.3831177,0.399395c-0.3454742,0.2590141-0.7881927,0.4761658-1.3288879,0.6510963
			c-0.540329,0.1749306-1.1936188,0.2624893-1.9595032,0.2624893c-0.7059326,0-1.3705597-0.1012688-1.993515-0.3039818
			c-0.6233063-0.202713-1.1698456-0.5293579-1.6396179-0.9799385c-0.4705048-0.4503937-0.8419342-1.0395241-1.1150208-1.7681274
			c-0.2734604-0.7282333-0.4101868-1.6178741-0.4101868-2.669281c0-0.9459381,0.1389236-1.7642879,0.4167633-2.4550514
			c0.2778473-0.6905804,0.6419525-1.2575951,1.0923615-1.7006779c0.4507599-0.4427166,0.9647522-0.7693634,1.5431061-0.9797535
			c0.5779877-0.2102089,1.1746063-0.3154964,1.7906036-0.3154964c0.7658997,0,1.4228363,0.1277695,1.9708405,0.382946
			c0.5480042,0.2555389,0.994751,0.5969906,1.3402252,1.0249023s0.600647,0.9234543,0.7658844,1.4866314
			c0.1652527,0.5631752,0.2478638,1.1451797,0.2478638,1.7456436c0,0.2105751-0.0036469,0.4244385-0.0113373,0.6419582
			c-0.0076752,0.217886-0.0263214,0.4244385-0.0562897,0.6194763h-7.0951843
			c0.0449677,1.0896091,0.333786,1.9662724,0.867157,2.6305294C130.7258911,34.9924355,131.5477142,35.324379,132.6594391,35.324379
			z M134.5739899,30.2561626c0-0.4054279-0.0413208-0.7805119-0.1235657-1.1261692
			c-0.0822601-0.3452892-0.2208099-0.6492691-0.4149323-0.9123039c-0.1941223-0.2624874-0.4522247-0.4690399-0.7735748-0.6192932
			c-0.321701-0.1500702-0.713974-0.2253799-1.177536-0.2253799c-0.7775879,0-1.4166107,0.2555408-1.9174652,0.7658901
			c-0.5012054,0.5107155-0.7812347,1.2162857-0.8412018,2.1172562H134.5739899z"/>
		<path class="st0" d="M142.9531708,38.0949287c-0.1652374,0.4803734-0.3458252,0.9382591-0.5410461,1.3740311
			c-0.1959534,0.4352226-0.436142,0.8143311-0.7220306,1.1375046c-0.2858734,0.3226242-0.635376,0.5816345-1.0484772,0.7770386
			c-0.4134674,0.1950378-0.9132233,0.2928276-1.4992523,0.2928276c-0.5717621,0-1.0488434-0.081707-1.4319763-0.2442055
			c-0.3838501-0.163414-0.575058-0.4149323-0.575058-0.7556534c0-0.2076492,0.0563049-0.4229774,0.1688995-0.6465302
			c0.1126099-0.2242813,0.2292175-0.4184036,0.3498688-0.5834656c0.1202698,0.1047401,0.3041534,0.228672,0.5523834,0.3716125
			c0.24823,0.1425781,0.5604401,0.2138634,0.936615,0.2138634c0.5260773,0,0.950882-0.196682,1.2744141-0.5894966
			c0.3231812-0.3929977,0.6127167-0.9976654,0.8686218-1.8138237l0.3154907-1.0203323h-0.765152l-3.6448364-10.4515667
			c0.3151245-0.1200924,0.6452484-0.1802311,0.9910889-0.1802311c0.3900757,0,0.7055664,0.1277695,0.945755,0.3829441
			c0.2401886,0.2555408,0.4204102,0.5556831,0.5406952,0.9009724l2.4779053,7.6810188l2.4775238-7.4783039
			c0.0449677-0.16506,0.1049194-0.3339577,0.1802368-0.5066948c0.0749359-0.172554,0.1762085-0.3341389,0.3041687-0.4843922
			c0.1272125-0.149889,0.2814941-0.2703476,0.4617157-0.3602791c0.1802368-0.0901165,0.3977509-0.1352654,0.6532898-0.1352654
			c0.3001404,0,0.5779877,0.0676327,0.8331604,0.2027149L142.9531708,38.0949287z"/>
		<path class="st0" d="M153.9850616,27.9361935h7.1628113V21.539093c0.0599518,0,0.1202698-0.0073128,0.1802368-0.0224838
			c0.0599518,0,0.1202698-0.0034733,0.1802216-0.0113335c0.0599518-0.0073109,0.127594-0.0111504,0.2028961-0.0111504
			c0.134903,0,0.2814941,0.0190105,0.4390717,0.0562992c0.1579285,0.0376549,0.3078156,0.1052876,0.4507599,0.2027149
			c0.1421967,0.0977917,0.2624817,0.2403679,0.3600922,0.4279118c0.0976105,0.1879082,0.1465912,0.4319324,0.1465912,0.7320728
			v13.7176552h-1.9598694v-6.9827576h-7.1628113v6.9827576h-1.9595032V21.539093
			c0.0595856,0,0.1199036-0.0073128,0.1802216-0.0224838c0.0596008,0,0.1199188-0.0034733,0.1802368-0.0113335
			c0.0595856-0.0073109,0.1272278-0.0111504,0.2025299-0.0111504c0.1498871,0,0.3078156,0.0190105,0.4730682,0.0562992
			c0.1652374,0.0376549,0.3154907,0.1052876,0.4503937,0.2027149c0.1352539,0.0977917,0.2478638,0.2403679,0.3377838,0.4279118
			c0.0903015,0.1879082,0.1352692,0.4319324,0.1352692,0.7320728V27.9361935z"/>
		<path class="st0" d="M170.4184113,35.324379c0.4354095,0,0.8145142-0.0451469,1.1376953-0.1352615
			c0.3227997-0.0901184,0.6002808-0.2027168,0.8331451-0.3377991c0.2328796-0.1350784,0.4317627-0.273819,0.5970001-0.4167595
			c0.1652374-0.1425743,0.3001404-0.273819,0.405426-0.3940964c0.1652374,0.210392,0.3114777,0.4355888,0.4394226,0.6757774
			c0.1272278,0.2403679,0.1912079,0.4279099,0.1912079,0.5629921c0,0.1215553-0.0376587,0.2467651-0.1125946,0.3763657
			c-0.0753174,0.1294136-0.2025452,0.2624855-0.3827667,0.399395c-0.3454742,0.2590141-0.788559,0.4761658-1.3288879,0.6510963
			c-0.5406952,0.1749306-1.193985,0.2624893-1.9598694,0.2624893c-0.7059326,0-1.3701935-0.1012688-1.993515-0.3039818
			c-0.6229401-0.202713-1.1698456-0.5293579-1.6396179-0.9799385c-0.4701385-0.4503937-0.8419342-1.0395241-1.1150208-1.7681274
			c-0.2734528-0.7282333-0.4098206-1.6178741-0.4098206-2.669281c0-0.9459381,0.1385651-1.7642879,0.4167633-2.4550514
			c0.2774811-0.6905804,0.6419678-1.2575951,1.0923615-1.7006779c0.4503937-0.4427166,0.9647522-0.7693634,1.5427399-0.9797535
			c0.5779877-0.2102089,1.1749725-0.3154964,1.7909698-0.3154964c0.7658997,0,1.4224854,0.1277695,1.9708557,0.382946
			c0.5480042,0.2555389,0.9947357,0.5969906,1.34021,1.0249023c0.345108,0.4279118,0.6002808,0.9234543,0.7658844,1.4866314
			c0.1648865,0.5631752,0.2478638,1.1451797,0.2478638,1.7456436c0,0.2105751-0.0040131,0.4244385-0.011322,0.6419582
			c-0.0076904,0.217886-0.0263214,0.4244385-0.0563049,0.6194763h-7.0955353
			c0.0453186,1.0896091,0.334137,1.9662724,0.8675079,2.6305294
			C168.4848633,34.9924355,169.3070526,35.324379,170.4184113,35.324379z M172.332962,30.2561626
			c0-0.4054279-0.0409546-0.7805119-0.1231995-1.1261692c-0.0826263-0.3452892-0.2208099-0.6492691-0.4152985-0.9123039
			c-0.1941223-0.2624874-0.4522247-0.4690399-0.7735748-0.6192932c-0.321701-0.1500702-0.713974-0.2253799-1.177536-0.2253799
			c-0.7772217,0-1.4166107,0.2555408-1.9174652,0.7658901c-0.5012054,0.5107155-0.7812347,1.2162857-0.8411865,2.1172562H172.332962
			z"/>
		<path class="st0" d="M184.1357117,34.1755447c0,0.3604622,0.0149841,0.6419601,0.0453339,0.8446732
			c0.0296021,0.202713,0.085907,0.3529663,0.1688995,0.4505768c0.0822449,0.0977936,0.1948547,0.1615868,0.3377838,0.1913834
			c0.1425781,0.0303421,0.3264618,0.0451469,0.5516663,0.0451469v0.9009743
			c-0.134903,0.0449638-0.3005066,0.0822525-0.4953613,0.1125984c-0.1952209,0.0299759-0.3981171,0.0449638-0.6083221,0.0449638
			c-0.4712372,0-0.881424-0.0939522-1.2312775-0.2814941c-0.3498535-0.1875458-0.5549469-0.5214996-0.6156311-1.0024223
			c-0.3754578,0.3756332-0.8262177,0.6947861-1.3515472,0.9574547c-0.5257111,0.2624855-1.2162933,0.3940964-2.072113,0.3940964
			c-0.3908081,0-0.7848969-0.0449677-1.1826477-0.1350822c-0.3981323-0.0901146-0.7585754-0.2551765-1.0813904-0.4955444
			c-0.3227997-0.2400017-0.5893097-0.5631752-0.7995148-0.968605c-0.2105865-0.405426-0.3151398-0.9234543-0.3151398-1.5542641
			c0-0.7805099,0.1985168-1.4189949,0.5966339-1.9145412c0.3977509-0.4955425,0.8898163-0.8859825,1.4754791-1.1713181
			c0.5856628-0.2851524,1.2126312-0.4803715,1.8809052-0.585659c0.6679077-0.1049213,1.279892-0.1650581,1.8355713-0.1802311
			c0.1352692,0,0.2928314,0,0.4730682,0c0.1802216,0,0.3377991,0.007679,0.473053,0.0224838v-0.3377953
			c0-0.6757755-0.1615753-1.1899624-0.4843903-1.5429306c-0.3227997-0.352602-0.9424591-0.5293598-1.8582458-0.5293598
			c-0.6755981,0-1.2466278,0.0866432-1.7116394,0.2590141c-0.465744,0.1727352-0.9161377,0.4092655-1.3515472,0.7095909h-0.2252045
			c-0.120636-0.1950378-0.2219086-0.4054298-0.3041534-0.6308098c-0.0826263-0.2251968-0.1239319-0.4054279-0.1239319-0.5405083
			c0-0.1950378,0.1199036-0.3791065,0.3604584-0.5518436c0.2398224-0.172554,0.5516663-0.3266468,0.9347839-0.4617271
			c0.3827667-0.1352654,0.806839-0.2401867,1.272583-0.3154964c0.4653931-0.0749435,0.9234619-0.1125984,1.3738556-0.1125984
			c0.7658844,0,1.4052887,0.0828037,1.9178314,0.2478638c0.5129089,0.1654243,0.9289398,0.413105,1.2480927,0.7432232
			c0.3187866,0.3304844,0.5432434,0.7434082,0.6723022,1.2389507c0.1290436,0.4955444,0.1937561,1.0663967,0.1937561,1.7118282
			V34.1755447z M182.2438354,31.2924004h-0.6532898c-0.4807434,0-0.9684296,0.0303421-1.4641571,0.0901146
			c-0.4953613,0.0601387-0.9461212,0.1727371-1.3515472,0.3377953c-0.405426,0.1654263-0.7359161,0.3942795-0.9910889,0.6871071
			c-0.2555389,0.2928314-0.3827515,0.679615-0.3827515,1.1599846c0,0.4505806,0.1348877,0.8485107,0.405426,1.1938019
			c0.2701569,0.3456573,0.7731934,0.5180283,1.5091095,0.5180283c0.3904419,0,0.7618713-0.0563011,1.1150208-0.1688995
			c0.352417-0.1125984,0.6642609-0.2513351,0.9347839-0.4167595c0.2701721-0.1650581,0.4843903-0.345108,0.6419678-0.5405121
			c0.1575623-0.195034,0.2365265-0.3829422,0.2365265-0.5631752V31.2924004z"/>
		<path class="st0" d="M188.7760162,34.5135231c0,0.2251968,0.007309,0.4165802,0.0222931,0.5743256
			c0.0149994,0.1575661,0.0563049,0.28936,0.1239319,0.3940964c0.0676422,0.1052895,0.1725616,0.1840706,0.315506,0.2365303
			c0.1425781,0.0528259,0.3491211,0.0789642,0.6192932,0.0789642v0.8108597
			c-0.134903,0.0449638-0.3191528,0.0822525-0.5516663,0.1125984c-0.2332458,0.0299759-0.461731,0.0449638-0.6872864,0.0449638
			c-0.4354095,0-0.7695465-0.0674477-1.0020599-0.202713c-0.2332458-0.1350822-0.405426-0.3153114-0.5180206-0.5405083
			c-0.1129761-0.2252007-0.1802368-0.4765358-0.2028961-0.7545586c-0.0226746-0.2776566-0.0336456-0.5518417-0.0336456-0.8221893
			V20.6606026h0.134903c0.0299835,0,0.0712891-0.0034714,0.1239319-0.0111485
			c0.0526428-0.0074959,0.1012726-0.0113335,0.1466064-0.0113335c0.4200439,0,0.7768555,0.1091251,1.0696869,0.3266449
			c0.2928162,0.217886,0.4394226,0.6119804,0.4394226,1.1824684V34.5135231z"/>
		<path class="st0" d="M191.6577301,35.279232c-0.1052856-0.2849693-0.1692657-0.5968094-0.1915588-0.9347878
			c-0.0226593-0.3377953-0.0339966-0.6717529-0.0339966-1.0022392V22.8005257h0.1352692
			c0.0299683,0,0.0712738-0.0034733,0.1239166-0.0113335c0.0522919-0.0073109,0.1012726-0.0111504,0.1466064-0.0111504
			c0.405426,0,0.757843,0.104557,1.0583496,0.3131199c0.3005066,0.2091122,0.4507599,0.5893154,0.4507599,1.1407928v1.7896957
			h3.3560333v1.6441956h-3.3560333v5.8114414c0,1.2314568,0.4876862,1.8470917,1.4641571,1.8470917
			c0.2398071,0,0.4650116-0.0413094,0.6755829-0.1239281c0.2102051-0.0824394,0.3977509-0.180233,0.5629883-0.2928314
			c0.1652527-0.1125984,0.3041687-0.2213593,0.4167633-0.3266449c0.1126099-0.1049232,0.1838989-0.180233,0.2142334-0.2251968
			c0.1798706,0.2251968,0.3337708,0.4430809,0.461731,0.6532898c0.1272125,0.210392,0.1911926,0.413105,0.1911926,0.6081429
			c0,0.1350822-0.067627,0.281498-0.2025299,0.4392433c-0.1352692,0.1575661-0.3231659,0.3039818-0.5633545,0.4392433
			c-0.2401886,0.1350822-0.5370331,0.2476807-0.8894501,0.3377991c-0.3531647,0.0901146-0.7399445,0.1350822-1.1599884,0.1350822
			c-0.78125,0-1.4045563-0.1502533-1.8695831-0.4503975C192.183075,36.2178574,191.8525848,35.8051186,191.6577301,35.279232z"/>
		<path class="st0" d="M205.9849548,30.3013115c0-0.2851524-0.0040131-0.5593357-0.011322-0.8221893
			c-0.0076904-0.2624855-0.048996-0.506876-0.1239319-0.7320728c-0.1052856-0.3902569-0.3231812-0.6905804-0.6532898-0.9009724
			c-0.3304901-0.2100258-0.8185425-0.3153114-1.4641571-0.3153114c-0.4204102,0-0.8072052,0.0489864-1.1599884,0.1464138
			c-0.3527832,0.0977936-0.6532898,0.2217236-0.9007874,0.3716125c-0.2478638,0.1502533-0.4394226,0.3231716-0.5746918,0.5180264
			c-0.134903,0.1954021-0.2025299,0.3908043-0.2025299,0.585659v7.478302h-1.9145355V20.6606026h0.1125946
			c0.0299835,0,0.0709229-0.0034714,0.1239319-0.0111485c0.0522766-0.0074959,0.1012573-0.0113335,0.146225-0.0113335
			c0.4204254,0,0.7772217,0.1052876,1.0700531,0.3153114c0.2928314,0.2105751,0.4390717,0.600832,0.4390717,1.17132v5.0005836
			c0.3904419-0.4354057,0.8858032-0.7658901,1.4868164-0.991087c0.6002808-0.2253799,1.2389374-0.3379784,1.9145355-0.3379784
			c0.5253448,0,0.9870605,0.0641594,1.3851776,0.1915646c0.3977509,0.1277695,0.7355499,0.3005066,1.0137634,0.5180264
			c0.2774658,0.217886,0.5066833,0.4695873,0.6869202,0.7545567c0.1802368,0.2855186,0.3078156,0.585659,0.3831329,0.9009724
			c0.0749359,0.3006897,0.1199036,0.6346474,0.1348877,1.0024204c0.0149994,0.3681393,0.0226746,0.7245789,0.0226746,1.06987
			v6.3970985h-1.9145508V30.3013115z"/>
	</g>
	<g>
		<path class="st1" d="M3.8764122,49.2446175c0.3152888-0.0392494,0.5622146-0.0590897,0.7399147-0.0590897
			c1.2227683,0,1.8345838,0.6213036,1.8345838,1.8641281v15.9794426c0,0.9273224-0.039681,1.7955551-0.1183953,2.6042633
			c-0.0989857,0.9467239-0.3601451,1.7800217-0.7841239,2.5003128c-0.4244108,0.7198563-0.9719605,1.267189-1.6424344,1.6424332
			c-0.6709051,0.3743744-1.4498537,0.5619965-2.3377085,0.5619965c-0.5326697,0-0.9268884-0.1134338-1.1835188-0.3403015
			C0.1285308,73.7709274,0,73.4008636,0,72.8880386c0-0.3355637,0.0101358-0.5723495,0.0295448-0.709938
			c1.4203088,0,2.4164226-0.2812195,2.9887731-0.8432159c0.571919-0.5624313,0.8580942-1.5242538,0.8580942-2.8854752V49.2446175z"
			/>
		<path class="st1" d="M21.8086185,62.0578041c0,1.5190773-0.261591,2.8457909-0.7841244,3.9801445
			c-0.5229645,1.134346-1.2723694,1.9973984-2.2488575,2.5891647c-0.97649,0.5917587-2.1453438,0.8876343-3.5065622,0.8876343
			c-2.0713739,0-3.669383-0.6456757-4.7938118-1.9383163c-1.1246452-1.2917709-1.6868591-3.1019897-1.6868591-5.4297752
			c0-1.4599915,0.2812147-2.7522011,0.8434296-3.8766289c0.5622139-1.1244278,1.3362026-1.977562,2.3228273-2.5598335
			c0.9864101-0.5814095,2.1306791-0.8725433,3.4328089-0.8725433c2.0513182,0,3.6346617,0.6409302,4.7493868,1.9232178
			C21.2511482,58.0435867,21.8086185,59.8089447,21.8086185,62.0578041z M19.1454868,62.0875664
			c0-3.3737221-1.2723694-5.0601463-3.8173227-5.0601463c-1.2626648,0-2.2294493,0.4485626-2.8999233,1.3461227
			c-0.6709051,0.8979874-1.0060339,2.1358528-1.0060339,3.7140236c0,1.6769371,0.3299532,2.9786339,0.9911537,3.9059563
			c0.6607695,0.9273224,1.6128893,1.3905487,2.8557138,1.3905487c1.282073,0,2.2488585-0.4481354,2.8999224-1.3461227
			C18.8200607,65.1403885,19.1454868,63.8235931,19.1454868,62.0875664z"/>
		<path class="st1" d="M31.8398457,58.4179649c-0.3748093-0.4537392-0.8876381-0.8233719-1.5387039-1.1097641
			c-0.6508484-0.2855263-1.3120499-0.4287224-1.982523-0.4287224c-0.8091393,0-1.4500694,0.1526833-1.9234333,0.4584846
			c-0.4735794,0.3062286-0.7101536,0.744873-0.7101536,1.3167915c0,0.3157234,0.0836735,0.5969353,0.2514534,0.8432159
			c0.1673489,0.2471428,0.4485645,0.4640923,0.8434296,0.6512794c0.3942184,0.1876221,1.0060349,0.3799858,1.8345833,0.577095
			c1.1438389,0.2764702,2.0366535,0.6016808,2.6780128,0.97649c0.6409302,0.3748093,1.114296,0.8432121,1.420311,1.4052124
			c0.3057976,0.5624313,0.4586983,1.2283783,0.4586983,1.9978333c0,1.3215408-0.5029106,2.3817062-1.5091591,3.1809235
			c-1.0060329,0.79879-2.3081627,1.198616-3.9059563,1.198616c-1.32197,0-2.4071503-0.1880493-3.2551079-0.5624313
			c-0.8878555-0.3549652-1.3316746-0.7694626-1.3316746-1.243042c0-0.1966782,0.048954-0.4188004,0.1479397-0.6655121
			c0.0985546-0.2467117,0.2958794-0.6068573,0.5919743-1.0800018c0.5520802,0.4731445,1.1733837,0.8432159,1.86413,1.1093292
			c0.6903133,0.2665558,1.3806267,0.399826,2.071373,0.399826c0.9072628,0,1.6077137-0.1824417,2.1011333-0.54776
			c0.4927731-0.3644638,0.7397003-0.8923874,0.7397003-1.5829163c0-0.6111679-0.2173824-1.099411-0.6510658-1.4647331
			c-0.4341145-0.3648911-1.2428246-0.6758652-2.426342-0.9320641c-1.5587597-0.3355598-2.6780128-0.8332939-3.3586235-1.4944954
			c-0.6806087-0.6607704-1.0209141-1.5337448-1.0209141-2.6189232c0-1.2029266,0.4733639-2.164753,1.4203091-2.8850441
			c0.9469433-0.7198563,2.1500874-1.0800018,3.6100769-1.0800018c0.710371,0,1.3806286,0.0737534,2.0122833,0.2216949
			c0.6312256,0.1479378,1.1438389,0.3403015,1.5387039,0.577095c0.6704731,0.3748093,1.0062504,0.7595367,1.0062504,1.1541862
			c0,0.4140625-0.1878357,0.9467316-0.5622139,1.598011L31.8398457,58.4179649z"/>
		<path class="st1" d="M35.3906174,48.0906448c0.1774864-0.0194092,0.354969-0.0295448,0.5326691-0.0295448
			c1.3213234,0,1.9825249,0.6709023,1.9825249,2.0120659v16.2162323c0,0.5525131,0.0392494,0.9273224,0.1183929,1.1244354
			c0.0784988,0.1975403,0.2169533,0.3403015,0.4142761,0.4291534c0.1968956,0.0888519,0.4929886,0.1332703,0.8876381,0.1332703
			v1.0649109c-0.4142723,0.1380234-0.957077,0.2074585-1.6273384,0.2074585c-0.5326691,0-0.9667816-0.0888443-1.3021278-0.2665482
			c-0.3355598-0.177269-0.5872307-0.4584808-0.7545815-0.8432159c-0.167778-0.3847275-0.2514534-1.0308304-0.2514534-1.9383087
			V48.0906448z"/>
		<path class="st1" d="M40.8650398,50.6058388c0-0.492775,0.1524696-0.8973465,0.4584846-1.2132797
			c0.3057976-0.3152885,0.6853523-0.4733658,1.1393089-0.4733658c0.4535217,0,0.8332939,0.1580772,1.1393089,0.4733658
			c0.305584,0.3159332,0.4586983,0.7205048,0.4586983,1.2132797c0,0.4541702-0.1531143,0.833725-0.4586983,1.1393089
			c-0.306015,0.306015-0.6857872,0.4586983-1.1393089,0.4586983c-0.4539566,0-0.8335114-0.1526833-1.1393089-0.4586983
			C41.0175095,51.4395638,40.8650398,51.060009,40.8650398,50.6058388z M41.308857,55.0149193
			c0.1774864-0.0194092,0.3549728-0.0293312,0.5326729-0.0293312c1.3213196,0,1.9825211,0.6706924,1.9825211,2.0120697v9.4099197
			c0,0.6318741,0.0985565,1.0506744,0.2958794,1.2577057c0.1971092,0.2070312,0.5719185,0.3109741,1.1244316,0.3109741v1.0649109
			c-0.4142761,0.1380234-0.9570808,0.2074585-1.6273384,0.2074585c-0.5326691,0-0.9667854-0.0888443-1.3021317-0.2665482
			c-0.3355598-0.177269-0.5872307-0.4584808-0.7545776-0.8432159c-0.1677818-0.3847275-0.2514572-1.0308304-0.2514572-1.9383087
			V55.0149193z"/>
		<path class="st1" d="M47.2271004,55.1037674c0.1774826-0.0194092,0.3448334-0.0297585,0.5031242-0.0297585
			c0.5326691,0,0.9663544,0.1285286,1.3019142,0.3847275c0.3353424,0.2566338,0.5326691,0.6318741,0.5917587,1.1244316
			c0.5520782-0.5520782,1.2281609-0.9808044,2.0271645-1.2870331c0.7990036-0.3058014,1.6616287-0.4584846,2.5891609-0.4584846
			c1.2031441,0,2.1848106,0.2661171,2.9443512,0.79879c0.7593231,0.5326691,1.2674065,1.3021278,1.5240364,2.3079453
			c0.1378059,0.5326691,0.2070312,1.4405823,0.2070312,2.7224388v8.4041061h-2.5151939v-8.3152542
			c0-0.9661407-0.0590897-1.6467476-0.1774826-2.041832c-0.1582947-0.5520782-0.4638786-0.956646-0.9174004-1.2132759
			c-0.4539566-0.2561989-1.0754776-0.3847313-1.8643456-0.3847313c-0.7101555,0-1.3463364,0.0992012-1.9085541,0.2958794
			c-0.5622139,0.1975403-1.001503,0.4589157-1.3167915,0.7845573c-0.315937,0.3252068-0.4735794,0.6655121-0.4735794,1.0209122
			v9.8537445h-2.5151939V55.1037674z"/>
		<path class="st1" d="M66.1064682,49.3630142c1.7556534-0.1968956,3.4224548-0.2958794,5.0010529-0.2958794
			c3.2743073,0,5.7355804,0.8188438,7.3829803,2.4561005c1.6469574,1.6376915,2.4707642,4.0739555,2.4707642,7.3092232
			c0,1.8938866-0.3105469,3.5708275-0.9320602,5.0303841c-0.6213074,1.4599876-1.5341797,2.6335869-2.7371063,3.5212288
			c-1.578598,1.1244278-3.7683716,1.6868591-6.5693054,1.6868591h-4.6163254V49.3630142z M71.1370697,66.8811569
			c2.3474121,0,4.1278687-0.6754303,5.3411407-2.0271606c1.2132797-1.3508682,1.8199234-3.309021,1.8199234-5.8736
			c0-2.6236687-0.5820541-4.552063-1.7459488-5.7851791c-1.1641083-1.2326889-2.9590149-1.8494644-5.3855743-1.8494644
			c-0.9667816,0-1.7953339,0.0493851-2.4856491,0.1479378v15.3874664H71.1370697z"/>
		<path class="st1" d="M82.884697,50.6058388c0-0.492775,0.1524734-0.8973465,0.4584885-1.2132797
			c0.3058014-0.3152885,0.6853485-0.4733658,1.1393051-0.4733658c0.4535294,0,0.8332977,0.1580772,1.1393127,0.4733658
			c0.3055801,0.3159332,0.4587021,0.7205048,0.4587021,1.2132797c0,0.4541702-0.1531219,0.833725-0.4587021,1.1393089
			c-0.306015,0.306015-0.6857834,0.4586983-1.1393127,0.4586983c-0.4539566,0-0.8335037-0.1526833-1.1393051-0.4586983
			C83.0371704,51.4395638,82.884697,51.060009,82.884697,50.6058388z M83.3285217,55.0149193
			c0.1774826-0.0194092,0.3549652-0.0293312,0.5326691-0.0293312c1.3213196,0,1.9825211,0.6706924,1.9825211,2.0120697v9.4099197
			c0,0.6318741,0.0985565,1.0506744,0.2958832,1.2577057c0.1971054,0.2070312,0.5719147,0.3109741,1.1244278,0.3109741v1.0649109
			c-0.4142761,0.1380234-0.9570847,0.2074585-1.6273422,0.2074585c-0.5326691,0-0.9667816-0.0888443-1.302124-0.2665482
			c-0.3355637-0.177269-0.5872345-0.4584808-0.7545853-0.8432159c-0.167778-0.3847275-0.2514496-1.0308304-0.2514496-1.9383087
			V55.0149193z"/>
		<path class="st1" d="M89.8682785,58.2700272c-0.158287-0.2561989-0.2913513-0.5326691-0.3996124-0.8285484
			c-0.1086884-0.2958794-0.1625977-0.5326729-0.1625977-0.7103729c0-0.3351288,0.2661133-0.6508484,0.7987823-0.9467278
			s1.198616-0.5274925,1.997406-0.6952744c0.7990036-0.167347,1.5930481-0.2514534,2.3821335-0.2514534
			c1.8542099,0,3.196022,0.3946495,4.0245667,1.1835175c0.8285522,0.789299,1.2428284,2.1207581,1.2428284,3.9948082v5.8296051
			c0,0.5525131,0.029541,0.9717484,0.0886307,1.2577057c0.0593033,0.2859573,0.1725235,0.4834976,0.3403091,0.5917587
			c0.1675644,0.1086884,0.5078659,0.1626053,1.0209122,0.1626053v1.1835175
			c-0.4142761,0.1380234-0.8977737,0.2074585-1.449852,0.2074585c-1.4602051,0-2.2592087-0.5624237-2.3970184-1.6868591
			c-0.6314392,0.6314392-1.3070908,1.0851822-2.026947,1.3612213c-0.7202911,0.2760391-1.5438766,0.4140625-2.4709854,0.4140625
			c-1.4008942,0-2.4906082-0.3549728-3.2697678-1.0649109c-0.7795944-0.7103729-1.1688538-1.7360306-1.1688538-3.0778427
			c0-1.5777321,0.6657257-2.7961884,1.9973984-3.6544991c1.3316803-0.8578796,3.2005463-1.3262825,5.6076965-1.4056435
			c0.5917587,0,1.0060349,0.0103493,1.2428284,0.0297585v-0.4438171c0-0.9864082-0.2419662-1.6868591-0.7250366-2.1009178
			c-0.4837189-0.4144897-1.2678375-0.621521-2.3525848-0.621521c-0.769249,0-1.4647369,0.0940247-2.0862579,0.2812157
			c-0.6212997,0.1876183-1.2676239,0.5175743-1.9380951,0.9911537H89.8682785z M97.2956772,62.0578041h-0.8580933
			c-1.7955475,0-3.1617279,0.2514534-4.0985336,0.754364c-0.9372406,0.5033417-1.4056473,1.2482185-1.4056473,2.2341957
			c0,0.7302094,0.2117767,1.2874603,0.6363983,1.6721954c0.4239807,0.3847275,1.0504608,0.577095,1.8790131,0.577095
			c0.651062,0,1.2771072-0.1186142,1.8790054-0.3554077c0.6014633-0.2367859,1.0800018-0.5326691,1.4351883-0.8876343
			c0.3551865-0.3549728,0.5326691-0.6806107,0.5326691-0.9764938V62.0578041z"/>
		<path class="st1" d="M103.036438,48.0906448c0.1774826-0.0194092,0.3551788-0.0295448,0.5326691-0.0295448
			c1.3213196,0,1.9825211,0.6709023,1.9825211,2.0120659v6.2736435c1.0062485-1.0062523,2.3571167-1.5091591,4.0541153-1.5091591
			c1.794899,0,3.1908417,0.611599,4.1871719,1.8343658c0.9958954,1.2236328,1.494278,2.9790688,1.494278,5.2671776
			c0,1.6376877-0.2417526,3.0140076-0.724823,4.1280823c-0.4837112,1.1149368-1.1792068,1.968071-2.0862503,2.5598373
			c-0.9076996,0.5917587-1.9633331,0.8876343-3.1662598,0.8876343c-0.8483887,0-1.6126709-0.1531143-2.2932816-0.4584808
			c-0.6806107-0.3058014-1.1889114-0.6957092-1.5240402-1.1688538v1.1835175h-2.4561005V48.0906448z M105.5516281,65.7269745
			c0.3551865,0.4735794,0.8382568,0.8634796,1.4500656,1.1688538c0.6111755,0.3062286,1.2428284,0.4589157,1.8938904,0.4589157
			c1.2029266,0,2.1203308-0.4438248,2.7519836-1.3318939c0.631012-0.8876419,0.9469452-2.1992569,0.9469452-3.9352837
			c0-3.4129715-1.2529602-5.1196709-3.7582321-5.1196709c-0.9469452,0-1.7310715,0.2027168-2.3523712,0.6068573
			c-0.621521,0.4045715-0.9322815,0.9023018-0.9322815,1.4940643V65.7269745z"/>
		<path class="st1" d="M119.5481186,62.5904732c0.0593033,1.5384865,0.4587021,2.7224388,1.198616,3.5509911
			c0.7397003,0.8285446,1.7998581,1.2426071,3.1809235,1.2426071c1.6372528,0,2.9393845-0.5620041,3.9061661-1.6864319
			c0.2367935,0.2958832,0.4336929,0.5969391,0.5917587,0.9023056c0.1576538,0.3062286,0.2368011,0.5473328,0.2368011,0.7250366
			c0,0.335556-0.217392,0.6711197-0.6510773,1.0062485c-1.0653305,0.7888718-2.5054855,1.1835175-4.3202286,1.1835175
			c-2.1703568,0-3.8371582-0.6409302-5.0010529-1.9232178c-1.1641083-1.2822876-1.7459488-3.1464157-1.7459488-5.5928154
			c0-1.4992371,0.27108-2.7815285,0.8138809-3.8468666c0.5423737-1.0653381,1.301918-1.8839684,2.2784042-2.4563179
			c0.9767075-0.5719223,2.0664139-0.8578796,3.269989-0.8578796c1.2029266,0,2.2290192,0.2514534,3.0774078,0.754364
			c0.8479614,0.5029068,1.4944916,1.2184525,1.9383087,2.1453438c0.4438171,0.9277496,0.665741,1.9926567,0.665741,3.1960182
			c0,0.7694588-0.0295563,1.3219681-0.0886383,1.6570969H119.5481186z M126.4726105,60.6965866
			c0-2.5248985-1.0948868-3.7877808-3.2846527-3.7877808c-1.045929,0-1.8938904,0.3403053-2.5449524,1.020916
			c-0.650856,0.6806107-1.0161743,1.6031837-1.0948868,2.7668648H126.4726105z"/>
		<path class="st1" d="M131.1773529,50.9017181c0.1774902-0.0194092,0.3549652-0.0295448,0.5324554-0.0295448
			c1.3215332,0,1.9827423,0.6709023,1.9827423,2.0122833v2.2784004h4.4090729v2.1306801h-4.4090729v7.6346474
			c0,1.6178436,0.6407166,2.4265594,1.9234314,2.4265594c0.3351288,0,0.6657257-0.0690155,0.9913635-0.2074661
			c0.3254242-0.1375885,0.6260529-0.3152847,0.9025269-0.5322342c0.2760315-0.2169495,0.4632263-0.3946533,0.5622101-0.5326691
			c0.5719147,0.709938,0.8580933,1.2624435,0.8580933,1.6570969c0,0.2764664-0.1876221,0.5619965-0.5622101,0.8578796
			c-0.3750305,0.2958755-0.833725,0.5227509-1.3760986,0.6806107c-0.5428009,0.1578598-1.1293945,0.2367859-1.7606201,0.2367859
			c-1.9728088,0-3.2253418-0.7397003-3.7580109-2.2190933c-0.1975403-0.5520782-0.2958832-1.4009018-0.2958832-2.5451736V50.9017181
			z"/>
		<path class="st1" d="M142.0960083,62.5904732c0.0592957,1.5384865,0.4586945,2.7224388,1.1986084,3.5509911
			c0.7397003,0.8285446,1.7998657,1.2426071,3.1809235,1.2426071c1.6372528,0,2.9393921-0.5620041,3.9061737-1.6864319
			c0.2367859,0.2958832,0.4336853,0.5969391,0.5917664,0.9023056c0.1576385,0.3062286,0.2367859,0.5473328,0.2367859,0.7250366
			c0,0.335556-0.2173767,0.6711197-0.651062,1.0062485c-1.0653381,0.7888718-2.5054932,1.1835175-4.3202362,1.1835175
			c-2.1703644,0-3.8371582-0.6409302-5.0010529-1.9232178c-1.1641083-1.2822876-1.7459564-3.1464157-1.7459564-5.5928154
			c0-1.4992371,0.2710876-2.7815285,0.8138885-3.8468666c0.5423737-1.0653381,1.3019104-1.8839684,2.2783966-2.4563179
			c0.9767151-0.5719223,2.0664215-0.8578796,3.269989-0.8578796c1.2029266,0,2.2290192,0.2514534,3.0774078,0.754364
			c0.8479614,0.5029068,1.4944916,1.2184525,1.938324,2.1453438c0.4438171,0.9277496,0.6657257,1.9926567,0.6657257,3.1960182
			c0,0.7694588-0.029541,1.3219681-0.0886383,1.6570969H142.0960083z M149.0204926,60.6965866
			c0-2.5248985-1.0948792-3.7877808-3.2846527-3.7877808c-1.045929,0-1.8938904,0.3403053-2.5449524,1.020916
			c-0.6508484,0.6806107-1.0161743,1.6031837-1.0948792,2.7668648H149.0204926z"/>
		<path class="st1" d="M161.6260071,58.4179649c-0.3748169-0.4537392-0.8876343-0.8233719-1.5387115-1.1097641
			c-0.6508484-0.2855263-1.3120422-0.4287224-1.9825134-0.4287224c-0.8091431,0-1.4500732,0.1526833-1.9234314,0.4584846
			c-0.473587,0.3062286-0.7101593,0.744873-0.7101593,1.3167915c0,0.3157234,0.0836792,0.5969353,0.2514496,0.8432159
			c0.1673584,0.2471428,0.4485626,0.4640923,0.8434296,0.6512794c0.3942261,0.1876221,1.0060425,0.3799858,1.8345795,0.577095
			c1.1438446,0.2764702,2.0366669,0.6016808,2.6780243,0.97649c0.6409302,0.3748093,1.1142883,0.8432121,1.4203033,1.4052124
			c0.3058014,0.5624313,0.4586945,1.2283783,0.4586945,1.9978333c0,1.3215408-0.5028992,2.3817062-1.5091553,3.1809235
			c-1.0060272,0.79879-2.3081665,1.198616-3.9059601,1.198616c-1.3219604,0-2.4071503-0.1880493-3.2550964-0.5624313
			c-0.8878632-0.3549652-1.3316803-0.7694626-1.3316803-1.243042c0-0.1966782,0.0489502-0.4188004,0.147934-0.6655121
			c0.0985565-0.2467117,0.2958832-0.6068573,0.59198-1.0800018c0.5520782,0.4731445,1.1733856,0.8432159,1.8641357,1.1093292
			c0.6903076,0.2665558,1.3806152,0.399826,2.0713654,0.399826c0.9072723,0,1.6077118-0.1824417,2.1011353-0.54776
			c0.4927673-0.3644638,0.7397003-0.8923874,0.7397003-1.5829163c0-0.6111679-0.2173767-1.099411-0.651062-1.4647331
			c-0.4341125-0.3648911-1.2428284-0.6758652-2.4263458-0.9320641c-1.5587616-0.3355598-2.678009-0.8332939-3.3586273-1.4944954
			c-0.680603-0.6607704-1.0209045-1.5337448-1.0209045-2.6189232c0-1.2029266,0.4733582-2.164753,1.4203033-2.8850441
			c0.9469452-0.7198563,2.1500854-1.0800018,3.6100769-1.0800018c0.7103729,0,1.3806305,0.0737534,2.0122833,0.2216949
			c0.6312256,0.1479378,1.1438446,0.3403015,1.5387115,0.577095c0.6704712,0.3748093,1.0062408,0.7595367,1.0062408,1.1541862
			c0,0.4140625-0.1878357,0.9467316-0.5622101,1.598011L161.6260071,58.4179649z"/>
		<path class="st1" d="M182.724472,53.2691841c-0.6709137-0.7297783-1.3760986-1.2622299-2.115799-1.5980072
			c-0.7399139-0.3351288-1.5637207-0.5031242-2.470993-0.5031242c-1.9728088,0-3.4819641,0.7004471-4.5274658,2.1011314
			c-1.045929,1.4006844-1.5682526,3.3834229-1.5682526,5.9480019s0.5423737,4.552063,1.6273346,5.9624481
			c1.0847473,1.41082,2.6532135,2.1160202,4.7051849,2.1160202c0.8677979,0,1.7112274-0.197113,2.5300751-0.5921936
			c0.8184052-0.3942184,1.523819-0.9368057,2.115799-1.6273422c0.2760315,0.2173843,0.5223083,0.4882507,0.7397003,0.8138885
			c0.2169495,0.3252106,0.3256378,0.5870132,0.3256378,0.7841263c0,0.3157196-0.1384583,0.6115952-0.4142761,0.8876343
			c-0.59198,0.5917587-1.3812714,1.0653458-2.3674774,1.420311c-0.986618,0.3549728-2.0519562,0.5326691-3.1958008,0.5326691
			c-2.8214264,0-4.9816437-0.8975601-6.4804535-2.6926804c-1.4994507-1.7951126-2.2490692-4.3204422-2.2490692-7.5755501
			s0.7642822-5.7946701,2.2932739-7.6197662c1.5285797-1.8244476,3.6842651-2.7371025,6.4657898-2.7371025
			c1.0060425,0,1.967865,0.1529007,2.8852692,0.4586983c0.9171753,0.3060188,1.6469574,0.6758652,2.1897583,1.1095505
			c0.5423737,0.4341164,0.8136749,0.8483887,0.8136749,1.2428246c0,0.3948669-0.2566223,0.9174004-0.769455,1.5684624H182.724472z"
			/>
		<path class="st1" d="M187.754425,62.5904732c0.0593109,1.5384865,0.4586945,2.7224388,1.1986084,3.5509911
			c0.7394867,0.8285446,1.800293,1.2426071,3.181366,1.2426071c1.6372528,0,2.9389496-0.5620041,3.9059448-1.6864319
			c0.2368011,0.2958832,0.4334717,0.5969391,0.5917664,0.9023056c0.1578522,0.3062286,0.2367859,0.5473328,0.2367859,0.7250366
			c0,0.335556-0.2173767,0.6711197-0.6508484,1.0062485c-1.0653381,0.7888718-2.5059204,1.1835175-4.3204498,1.1835175
			c-2.170578,0-3.8373718-0.6409302-5.0012665-1.9232178c-1.1641083-1.2822876-1.7459564-3.1464157-1.7459564-5.5928154
			c0-1.4992371,0.2710876-2.7815285,0.8138885-3.8468666c0.5423737-1.0653381,1.3019104-1.8839684,2.2784119-2.4563179
			c0.9766998-0.5719223,2.0664062-0.8578796,3.2702026-0.8578796c1.2029266,0,2.2290192,0.2514534,3.0774078,0.754364
			c0.8479462,0.5029068,1.4944916,1.2184525,1.9383087,2.1453438c0.4438171,0.9277496,0.6659393,1.9926567,0.6659393,3.1960182
			c0,0.7694588-0.0297546,1.3219681-0.0888519,1.6570969H187.754425z M194.6791229,60.6965866
			c0-2.5248985-1.0950928-3.7877808-3.2848663-3.7877808c-1.0454865,0-1.8938904,0.3403053-2.5449524,1.020916
			c-0.6508484,0.6806107-1.0161591,1.6031837-1.0948792,2.7668648H194.6791229z"/>
		<path class="st1" d="M199.1768494,55.1037674c0.1777039-0.0194092,0.345047-0.0297585,0.5028992-0.0297585
			c0.5326843,0,0.9665833,0.1285286,1.3021393,0.3847275c0.3351288,0.2566338,0.5326691,0.6318741,0.5917511,1.1244316
			c0.5520782-0.5520782,1.227951-0.9808044,2.0271759-1.2870331c0.7987823-0.3058014,1.6618347-0.4584846,2.5891571-0.4584846
			c1.2029266,0,2.1845856,0.2661171,2.9445648,0.79879c0.7591095,0.5326691,1.2671967,1.3021278,1.523819,2.3079453
			c0.1375885,0.5326691,0.2070312,1.4405823,0.2070312,2.7224388v8.4041061h-2.5154114v-8.3152542
			c0-0.9661407-0.059082-1.6467476-0.1772614-2.041832c-0.1582947-0.5520782-0.4636688-0.956646-0.9174042-1.2132759
			c-0.4541626-0.2561989-1.0752563-0.3847313-1.8641205-0.3847313c-0.7103729,0-1.3465576,0.0992012-1.9089966,0.2958794
			c-0.5619965,0.1975403-1.0010681,0.4589157-1.3167877,0.7845573c-0.3157196,0.3252068-0.4731445,0.6655121-0.4731445,1.0209122
			v9.8537445h-2.5154114V55.1037674z"/>
		<path class="st1" d="M213.4989777,50.9017181c0.1772614-0.0194092,0.3549652-0.0295448,0.5326691-0.0295448
			c1.321106,0,1.9822998,0.6709023,1.9822998,2.0122833v2.2784004h4.4093018v2.1306801h-4.4093018v7.6346474
			c0,1.6178436,0.6409302,2.4265594,1.9236603,2.4265594c0.3351288,0,0.6659393-0.0690155,0.9911499-0.2074661
			c0.3256378-0.1375885,0.6262665-0.3152847,0.9027405-0.5322342c0.2760315-0.2169495,0.4632263-0.3946533,0.5619965-0.5326691
			c0.5723419,0.709938,0.8583069,1.2624435,0.8583069,1.6570969c0,0.2764664-0.1876221,0.5619965-0.5619965,0.8578796
			c-0.3752441,0.2958755-0.833725,0.5227509-1.3763123,0.6806107c-0.5426025,0.1578598-1.1296082,0.2367859-1.7606201,0.2367859
			c-1.9728241,0-3.2253418-0.7397003-3.7580109-2.2190933c-0.1975403-0.5520782-0.2958832-1.4009018-0.2958832-2.5451736V50.9017181
			z"/>
		<path class="st1" d="M224.4180603,62.5904732c0.059082,1.5384865,0.4584808,2.7224388,1.1981812,3.5509911
			c0.7401276,0.8285446,1.800293,1.2426071,3.1813507,1.2426071c1.6372681,0,2.9389648-0.5620041,3.9059601-1.6864319
			c0.2367859,0.2958832,0.4334717,0.5969391,0.5917664,0.9023056c0.1578522,0.3062286,0.2367859,0.5473328,0.2367859,0.7250366
			c0,0.335556-0.2173767,0.6711197-0.6508484,1.0062485c-1.0653381,0.7888718-2.5059204,1.1835175-4.3204498,1.1835175
			c-2.1703644,0-3.8373871-0.6409302-5.0010529-1.9232178c-1.1641083-1.2822876-1.7459564-3.1464157-1.7459564-5.5928154
			c0-1.4992371,0.2708588-2.7815285,0.8138885-3.8468666c0.54216-1.0653381,1.302124-1.8839684,2.2786102-2.4563179
			c0.9765015-0.5719223,2.0659943-0.8578796,3.2697754-0.8578796c1.2029266,0,2.2290192,0.2514534,3.0774078,0.754364
			c0.8479614,0.5029068,1.4944916,1.2184525,1.938324,2.1453438c0.4438171,0.9277496,0.6659393,1.9926567,0.6659393,3.1960182
			c0,0.7694588-0.0297546,1.3219681-0.0888519,1.6570969H224.4180603z M231.3423309,60.6965866
			c0-2.5248985-1.0950928-3.7877808-3.2848663-3.7877808c-1.0455017,0-1.8934631,0.3403053-2.5447388,1.020916
			c-0.6508484,0.6806107-1.0161743,1.6031837-1.0946655,2.7668648H231.3423309z"/>
		<path class="st1" d="M235.8400421,55.1037674c0.2169495-0.0194092,0.3942261-0.0297585,0.5326843-0.0297585
			c0.5326691,0,0.9661255,0.1285286,1.302124,0.3847275c0.3351288,0.2566338,0.5326691,0.621521,0.5917511,1.0951004
			c0.3351288-0.5128288,0.7888794-0.9273186,1.3612213-1.2430382c0.5719299-0.3152885,1.1735992-0.4731483,1.8050385-0.4731483
			c0.631012,0,1.1438446,0.1082573,1.5389252,0.3252068c0.3942108,0.2173843,0.5917511,0.5231819,0.5917511,0.9174004
			c0,0.2566299-0.0694275,0.5671768-0.2074585,0.9320641c-0.1380157,0.3653221-0.3058014,0.6957054-0.5028992,0.9915848
			c-0.276474-0.2561989-0.5671844-0.4442482-0.8729858-0.5624275c-0.3062286-0.1181793-0.6659393-0.1777-1.0800018-0.1777
			c-0.6711121,0-1.2628784,0.202713-1.7757111,0.6068535c-0.5128174,0.4045715-0.7690277,0.8630562-0.7690277,1.375885v9.8244133
			h-2.5154114V55.1037674z"/>
	</g>
	<g>
		<path class="st2" d="M248.7481995,14.7189837c0.2504578,0.1383495,0.2937775,0.4405699,0.2181854,0.5868101
			c-0.0756073,0.1462402-9.3964233,17.7603035-9.4390564,17.840229c-0.0497131,0.0932159-0.1520538,0.2081604-0.3246613,0.2397766
			c-0.1725922,0.0316124-17.2978363,3.1695175-17.3990479,3.1869774c-0.6435394,0.1110115-0.9954224-0.7048836-0.4799194-1.1008797
			c0.477066-0.3664665,9.3870697-7.2224579,9.3870697-7.2224579s-14.2800446-8.8804321-14.4845123-9.0080185
			c-0.5280457-0.3294868-0.3482361-1.1434498,0.2739258-1.2098694c0.6036224-0.0644417,12.961792-1.3639412,12.961792-1.3639412
			s-8.6321869-15.3926249-8.8035431-15.6963978c-0.3151855-0.5587338,0.2928467-1.2057834,0.8882294-0.8865857
			C222.1399689,0.4027074,248.7481995,14.7189837,248.7481995,14.7189837z"/>
		<path class="st3" d="M248.7481995,14.7189837c0.2504578,0.1383495,0.2937775,0.4405699,0.2181854,0.5868101
			c-0.0756073,0.1462402-9.3964233,17.7603035-9.4390564,17.840229c-0.0497131,0.0932159-0.1520538,0.2081604-0.3246613,0.2397766
			c-0.1725922,0.0316124-0.3008423-0.042923-0.3288727-0.0598717c-0.0580597-0.0351067-8.1631775-5.0767078-8.1631775-5.0767078
			l3.665802-2.8202915l-4.914444-8.7613182l19.0235748-2.0017977
			C248.6349335,14.6514482,248.7481995,14.7189837,248.7481995,14.7189837z"/>
		<path class="st4" d="M248.7481995,14.7189837c0.2504578,0.1383495,0.2937775,0.4405699,0.2181854,0.5868101
			c-0.0756073,0.1462402-9.3964233,17.7603035-9.4390564,17.840229c-0.0497131,0.0932159-0.1520538,0.2081604-0.3246613,0.2397766
			c-0.1725922,0.0316124-0.3008423-0.042923-0.3288727-0.0598717c-0.0041351-0.0024986-0.0969849-0.0524254-0.1579742-0.1609344
			l-4.3394012-7.7360649l13.8667603-10.6695614c0.0731049-0.0531158,0.1403961-0.0830336,0.2423706-0.0935545
			C248.6325684,14.6506453,248.7481995,14.7189837,248.7481995,14.7189837z"/>
	</g>
</g>
</svg>
